<svg xmlns="http://www.w3.org/2000/svg" class="marks" width="940" height="582"><g class="mark-group role-frame root" aria-roledescription="group mark container" fill="none" stroke-miterlimit="10"><path class="background" aria-hidden="true" d="M20 5h920v560H20z"/><g class="mark-rect role-mark" aria-roledescription="rect mark container"><path d="M20 332.57981h34.38462V565H20z" fill="#414487"/><path d="M20 168.39192h34.38462v164.1879H20z" fill="#2A788E"/><path d="M20 24.97668h34.38462v143.41524H20z" fill="#22A884"/><path d="M20 5h34.38462v19.97668H20z" fill="#7AD151"/><path d="M55.38462 359.22196h34.38461V565H55.38462z" fill="#414487"/><path d="M55.38462 250.98173h34.38461v108.24023H55.38462z" fill="#2A788E"/><path d="M55.38462 150.83692h34.38461v100.1448H55.38462z" fill="#22A884"/><path d="M55.38462 5h34.38461v145.83692H55.38462z" fill="#7AD151"/><path d="M90.76923 401.18022h34.38462V565H90.76923z" fill="#414487"/><path d="M90.76923 367.75378h34.38462v33.42644H90.76923z" fill="#2A788E"/><path d="M90.76923 82.9698h34.38462v284.78398H90.76923z" fill="#22A884"/><path d="M90.76923 5h34.38462v77.9698H90.76923z" fill="#7AD151"/><path d="M126.15385 443.67713h34.38461V565h-34.38461z" fill="#414487"/><path d="M126.15385 258.2988h34.38461v185.37833h-34.38461z" fill="#2A788E"/><path d="M126.15385 140.94925h34.38461V258.2988h-34.38461z" fill="#22A884"/><path d="M126.15385 5h34.38461v135.94925h-34.38461z" fill="#7AD151"/><path d="M161.53846 534.47899h34.38462V565h-34.38462z" fill="#414487"/><path d="M161.53846 411.18828h34.38462v123.2907h-34.38462z" fill="#2A788E"/><path d="M161.53846 287.05101h34.38462v124.13727h-34.38462z" fill="#22A884"/><path d="M161.53846 5h34.38462v282.05101h-34.38462z" fill="#7AD151"/><path d="M196.92308 535.71507h34.38461V565h-34.38461z" fill="#414487"/><path d="M196.92308 460.93989h34.38461v74.77518h-34.38461z" fill="#2A788E"/><path d="M196.92308 12.1797h34.38461v448.76019h-34.38461z" fill="#22A884"/><path d="M196.92308 5h34.38461v7.1797h-34.38461z" fill="#7AD151"/><path d="M232.3077 401.1849h34.3846V565h-34.3846z" fill="#414487"/><path d="M232.3077 287.11402h34.3846V401.1849h-34.3846z" fill="#2A788E"/><path d="M232.3077 86.27512h34.3846v200.8389h-34.3846z" fill="#22A884"/><path d="M232.3077 5h34.3846v81.27512h-34.3846z" fill="#7AD151"/><path d="M267.6923 521.65726h34.38462V565h-34.38461z" fill="#414487"/><path d="M267.6923 456.92986h34.38462v64.7274h-34.38461z" fill="#2A788E"/><path d="M267.6923 201.89802h34.38462v255.03184h-34.38461z" fill="#22A884"/><path d="M267.6923 5h34.38462v196.89802h-34.38461z" fill="#7AD151"/><path d="M303.07692 551.4013h34.38462V565h-34.38462z" fill="#414487"/><path d="M303.07692 224.47937h34.38462V551.4013h-34.38462z" fill="#2A788E"/><path d="M303.07692 103.44537h34.38462v121.034h-34.38462z" fill="#22A884"/><path d="M303.07692 5h34.38462v98.44537h-34.38462z" fill="#7AD151"/><path d="M338.46154 528.26766h34.38461V565h-34.38461z" fill="#414487"/><path d="M338.46154 525.24801h34.38461v3.01965h-34.38461z" fill="#2A788E"/><path d="M338.46154 314.11505h34.38461V525.248h-34.38461z" fill="#22A884"/><path d="M338.46154 5h34.38461v309.11505h-34.38461z" fill="#7AD151"/><path d="M373.84615 336.476h34.38462V565h-34.38462z" fill="#414487"/><path d="M373.84615 177.15764h34.38462V336.476h-34.38462z" fill="#2A788E"/><path d="M373.84615 76.50638h34.38462v100.65126h-34.38462z" fill="#22A884"/><path d="M373.84615 5h34.38462v71.50638h-34.38462z" fill="#7AD151"/><path d="M409.23077 444.19403h34.38461V565h-34.38461z" fill="#414487"/><path d="M409.23077 423.92092h34.38461v20.27311h-34.38461z" fill="#2A788E"/><path d="M409.23077 389.55312h34.38461v34.3678h-34.38461z" fill="#22A884"/><path d="M409.23077 5h34.38461v384.55312h-34.38461z" fill="#7AD151"/><path d="M444.61538 293.29773H479V565h-34.38462z" fill="#414487"/><path d="M444.61538 235.97439H479v57.32334h-34.38462z" fill="#2A788E"/><path d="M444.61538 168.79921H479v67.17518h-34.38462z" fill="#22A884"/><path d="M444.61538 5H479v163.79921h-34.38462z" fill="#7AD151"/><path d="M480 203.0541h34.38462V565H480z" fill="#414487"/><path d="M480 149.50846h34.38462v53.54565H480z" fill="#2A788E"/><path d="M480 99.9852h34.38462v49.52326H480z" fill="#22A884"/><path d="M480 5h34.38462v94.9852H480z" fill="#7AD151"/><path d="M515.38462 495.99559h34.38461V565h-34.38461z" fill="#414487"/><path d="M515.38462 344.65593h34.38461v151.33966h-34.38461z" fill="#2A788E"/><path d="M515.38462 220.94416h34.38461v123.71177h-34.38461z" fill="#22A884"/><path d="M515.38462 5h34.38461v215.94416h-34.38461z" fill="#7AD151"/><path d="M550.76923 546.19h34.38462V565h-34.38462z" fill="#414487"/><path d="M550.76923 371.0053h34.38462V546.19h-34.38462z" fill="#2A788E"/><path d="M550.76923 199.33396h34.38462V371.0053h-34.38462z" fill="#22A884"/><path d="M550.76923 5h34.38462v194.33396h-34.38462z" fill="#7AD151"/><path d="M586.15385 427.85759h34.38461V565h-34.38461z" fill="#414487"/><path d="M586.15385 394.35242h34.38461v33.50517h-34.38461z" fill="#2A788E"/><path d="M586.15385 210.91286h34.38461v183.43956h-34.38461z" fill="#22A884"/><path d="M586.15385 5h34.38461v205.91286h-34.38461z" fill="#7AD151"/><path d="M621.53846 529.02089h34.38462V565h-34.38462z" fill="#414487"/><path d="M621.53846 337.38934h34.38462V529.0209h-34.38462z" fill="#2A788E"/><path d="M621.53846 144.44452h34.38462v192.94482h-34.38462z" fill="#22A884"/><path d="M621.53846 5h34.38462v139.44452h-34.38462z" fill="#7AD151"/><path d="M656.92308 443.77708h34.38461V565h-34.38461z" fill="#414487"/><path d="M656.92308 256.48955h34.38461v187.28753h-34.38461z" fill="#2A788E"/><path d="M656.92308 141.99676h34.38461v114.4928h-34.38461z" fill="#22A884"/><path d="M656.92308 5h34.38461v136.99676h-34.38461z" fill="#7AD151"/><path d="M692.3077 386.61806h34.3846V565h-34.3846z" fill="#414487"/><path d="M692.3077 250.67046h34.3846v135.9476h-34.3846z" fill="#2A788E"/><path d="M692.3077 18.8293h34.3846v231.84116h-34.3846z" fill="#22A884"/><path d="M692.3077 5h34.3846v13.8293h-34.3846z" fill="#7AD151"/><path d="M727.6923 414.37385h34.38462V565h-34.38461z" fill="#414487"/><path d="M727.6923 259.65485h34.38462v154.719h-34.38461z" fill="#2A788E"/><path d="M727.6923 66.72282h34.38462v192.93203h-34.38461z" fill="#22A884"/><path d="M727.6923 5h34.38462v61.72282h-34.38461z" fill="#7AD151"/><path d="M763.07692 546.76174h34.38462V565h-34.38462z" fill="#414487"/><path d="M763.07692 379.45685h34.38462v167.30489h-34.38462z" fill="#2A788E"/><path d="M763.07692 126.97166h34.38462v252.4852h-34.38462z" fill="#22A884"/><path d="M763.07692 5h34.38462v121.97166h-34.38462z" fill="#7AD151"/><path d="M798.46154 439.4406h34.38461V565h-34.38461z" fill="#414487"/><path d="M798.46154 226.82051h34.38461V439.4406h-34.38461z" fill="#2A788E"/><path d="M798.46154 201.08794h34.38461v25.73257h-34.38461z" fill="#22A884"/><path d="M798.46154 5h34.38461v196.08794h-34.38461z" fill="#7AD151"/><path d="M833.84615 296.95984h34.38462V565h-34.38462z" fill="#414487"/><path d="M833.84615 184.96171h34.38462v111.99813h-34.38462z" fill="#2A788E"/><path d="M833.84615 37.30094h34.38462V184.9617h-34.38462z" fill="#22A884"/><path d="M833.84615 5h34.38462v32.30094h-34.38462z" fill="#7AD151"/><path d="M869.23077 524.831h34.38461V565h-34.38461z" fill="#414487"/><path d="M869.23077 231.46382h34.38461v293.36717h-34.38461z" fill="#2A788E"/><path d="M869.23077 54.87531h34.38461v176.5885h-34.38461z" fill="#22A884"/><path d="M869.23077 5h34.38461v49.87531h-34.38461z" fill="#7AD151"/><path d="M904.61538 428.30524H939V565h-34.38462z" fill="#414487"/><path d="M904.61538 294.08325H939v134.22199h-34.38462z" fill="#2A788E"/><path d="M904.61538 81.74685H939v212.3364h-34.38462z" fill="#22A884"/><path d="M904.61538 5H939v76.74685h-34.38462z" fill="#7AD151"/></g><g class="mark-group role-axis" aria-roledescription="axis" aria-label="X-axis for a discrete scale with 26 values: 0, 1000, 2000, 3000, 4000, ending with 25000"><path class="background" aria-hidden="true" d="M20.5 565.5z" pointer-events="none"/><g class="mark-rule role-axis-tick" pointer-events="none" stroke="#888"><path d="M37.5 565.5v5M73.5 565.5v5M108.5 565.5v5M143.5 565.5v5M179.5 565.5v5M214.5 565.5v5M250.5 565.5v5M285.5 565.5v5M320.5 565.5v5M356.5 565.5v5M391.5 565.5v5M426.5 565.5v5M462.5 565.5v5M497.5 565.5v5M533.5 565.5v5M568.5 565.5v5M603.5 565.5v5M639.5 565.5v5M674.5 565.5v5M710.5 565.5v5M745.5 565.5v5M780.5 565.5v5M816.5 565.5v5M851.5 565.5v5M886.5 565.5v5M922.5 565.5v5"/></g><g class="mark-text role-axis-label" pointer-events="none" text-anchor="middle" font-family="Source Sans Pro, sans-serif" font-size="10" fill="#000"><text transform="translate(37.6923 580.5)">0</text><text transform="translate(73.07692 580.5)">1000</text><text transform="translate(108.46154 580.5)">2000</text><text transform="translate(143.84615 580.5)">3000</text><text transform="translate(179.23077 580.5)">4000</text><text transform="translate(214.61538 580.5)">5000</text><text transform="translate(250 580.5)">6000</text><text transform="translate(285.38462 580.5)">7000</text><text transform="translate(320.76923 580.5)">8000</text><text transform="translate(356.15385 580.5)">9000</text><text transform="translate(391.53846 580.5)">10000</text><text transform="translate(426.92308 580.5)">11000</text><text transform="translate(462.3077 580.5)">12000</text><text transform="translate(497.6923 580.5)">13000</text><text transform="translate(533.07692 580.5)">14000</text><text transform="translate(568.46154 580.5)">15000</text><text transform="translate(603.84615 580.5)">16000</text><text transform="translate(639.23077 580.5)">17000</text><text transform="translate(674.61538 580.5)">18000</text><text transform="translate(710 580.5)">19000</text><text transform="translate(745.38462 580.5)">20000</text><text transform="translate(780.76923 580.5)">21000</text><text transform="translate(816.15385 580.5)">22000</text><text transform="translate(851.53846 580.5)">23000</text><text transform="translate(886.92308 580.5)">24000</text><text transform="translate(922.3077 580.5)">25000</text></g><path stroke="#888" d="M20.5 565.5h920" pointer-events="none"/></g><g class="mark-group role-axis" aria-roledescription="axis" aria-label="Y-axis for a linear scale with values from 0.0 to 1.0"><path class="background" aria-hidden="true" d="M20.5 5.5z" pointer-events="none"/><g class="mark-rule role-axis-tick" pointer-events="none" stroke="#888"><path d="M20.5 565.5h-5M20.5 509.5h-5M20.5 453.5h-5M20.5 397.5h-5M20.5 341.5h-5M20.5 285.5h-5M20.5 229.5h-5M20.5 173.5h-5M20.5 117.5h-5M20.5 61.5h-5M20.5 5.5h-5"/></g><g class="mark-text role-axis-label" pointer-events="none" text-anchor="end" font-family="Source Sans Pro, sans-serif" font-size="10" fill="#000"><text transform="translate(13.5 568.5)">0.0</text><text transform="translate(13.5 512.5)">0.1</text><text transform="translate(13.5 456.5)">0.2</text><text transform="translate(13.5 400.5)">0.3</text><text transform="translate(13.5 344.5)">0.4</text><text transform="translate(13.5 288.5)">0.5</text><text transform="translate(13.5 232.5)">0.6</text><text transform="translate(13.5 176.5)">0.7</text><text transform="translate(13.5 120.5)">0.8</text><text transform="translate(13.5 64.5)">0.9</text><text transform="translate(13.5 8.5)">1.0</text></g><path stroke="#888" d="M20.5 565.5V5.5" pointer-events="none"/></g></g></svg>