<svg xmlns="http://www.w3.org/2000/svg" class="marks" width="469" height="242"><g class="mark-group role-frame root" aria-roledescription="group mark container" fill="none" stroke-miterlimit="10"><path class="background" aria-hidden="true" d="M6.5 5.5h300v200H6.5z" fill="transparent" stroke="#ddd"/><g class="mark-group role-axis" aria-hidden="true"><path class="background" aria-hidden="true" d="M6.5 205.5z" pointer-events="none"/><g class="mark-rule role-axis-grid" pointer-events="none" stroke="#ddd"><path d="M6.5 5.5v200M36.5 5.5v200M66.5 5.5v200M95.5 5.5v200M125.5 5.5v200M155.5 5.5v200M185.5 5.5v200M214.5 5.5v200M244.5 5.5v200M274.5 5.5v200M303.5 5.5v200"/></g></g><g class="mark-group role-axis" aria-roledescription="axis" aria-label="X-axis titled 'date (year-month)' for a time scale with values from 2000 to 2010"><path class="background" aria-hidden="true" d="M6.5 205.5z" pointer-events="none"/><g class="mark-rule role-axis-tick" pointer-events="none" stroke="#888"><path d="M6.5 205.5v5M36.5 205.5v5M66.5 205.5v5M95.5 205.5v5M125.5 205.5v5M155.5 205.5v5M185.5 205.5v5M214.5 205.5v5M244.5 205.5v5M274.5 205.5v5M303.5 205.5v5"/></g><g class="mark-text role-axis-label" pointer-events="none" font-family="sans-serif" font-size="10" fill="#000"><text transform="translate(6.5 220.5)">2000</text><text text-anchor="middle" transform="translate(66.02769 220.5)">2002</text><text text-anchor="middle" transform="translate(125.47394 220.5)">2004</text><text text-anchor="middle" transform="translate(185.00163 220.5)">2006</text><text text-anchor="middle" transform="translate(244.44788 220.5)">2008</text><text text-anchor="middle" transform="translate(303.97557 220.5)">2010</text></g><text text-anchor="middle" transform="translate(156.5 235.5)" font-family="sans-serif" font-size="11" font-weight="bold" fill="#000" pointer-events="none">date (year-month)</text></g><g class="mark-group role-scope pathgroup" aria-roledescription="group mark container"><path class="background" aria-hidden="true" d="M6 5h300v200H6z"/><g aria-roledescription="area mark container"><path aria-label="date (year-month): 2000; Sum of count: 0.0719785738199; series: Government" aria-roledescription="area mark" d="M6 76.4764l2.52443 1.53036 2.36156-.81387 2.52783-5.11343 2.443-1.22483 2.52442-1.48292 2.443.90196 2.52443 2.30504 2.52104-1.08625 2.443.24385 2.52442 4.1559 2.443 4.09245 2.52443 2.23073 2.52443.37388 2.28013-4.01599 2.52782-3.33008 2.443-3.3806 2.52443-1.69002 2.443 2.13728 2.52443 3.58245 2.52443-3.8149 2.443 2.06206 2.52103 3.41256 2.443-1.03441 2.52443 6.77246 2.52443-3.84048 2.28013-.46214 2.52782-3.48997 2.443-1.74498 2.52443 1.07996 2.443.8672 2.52442.4418 2.52443-.51613 2.443-.62398 2.52104 2.25366 2.443 4.16879 2.52442-.84622 2.52443 1.21931 2.28013-.80352 2.52783-1.8894 2.443-.74696 2.52442-3.6223 2.443-3.0362 2.52443 2.39776 2.52443.34852 2.443 2.78693 2.52103-.6809 2.443 4.07012 2.52443 1.83989 2.52443-.98524 2.36156-1.80184 2.52783-2.69142 2.443-2.71033 2.52442 1.03355 2.443-1.99215 2.52443.51758 2.52443 1.80163 2.443-.58304 2.52103 2.94229 2.443 5.35163 2.52443-1.03109 2.52443.74437 2.28013-2.51028 2.52782-5.30304 2.443-.37566 2.52443-1.83193 2.443-1.16797 2.52443 3.31862 2.52443 4.01282 2.443-4.04868 2.52103.24982 2.443 5.81507 2.52443-1.03885 2.52443-1.63031 2.28013 4.62892 2.52443-6.56487 2.44639 1.81306 2.52443-2.31447 2.443.67897 2.52443-1.3306 2.52443 2.83947 2.443-2.01285 2.52103.59254 2.443 7.31294 2.52443-2.40052 2.52443 4.9489 2.28013-1.28063 2.52782-.51733 2.443.16752 2.52443-6.62843 2.443-2.95723 2.52442 1.31926 2.52443-.4238 2.443.72679 2.52104-2.53323 2.443 9.70258 2.52442-1.6694 2.52443 3.43564 2.36157 3.86111 2.52443-2.6035 2.44639-7.86243 2.52443-3.49878 2.443-1.00377 2.52442 3.3004 2.52443 3.40314 2.443 2.95576 2.52104-2.60945 2.443 3.24513 2.52442-2.54526 2.52443 4.205 2.28013.00459 2.52443-3.51089 2.4464-2.23385 2.52442-.94176 2.443.49433 2.52443-.77061 2.52443 3.39065 2.443.56141 2.52103.73697 2.443 3.14613 2.52443-4.47006L306 90.04137v11.74272l-2.52443-5.91467-2.52443 3.5738-2.443-3.4598-2.52103-.42605-2.443 1.64248-2.52443-.80319-2.52443.67073-2.443-2.32343-2.52443-2.77207-2.44639.67758-2.52443 3.37715-2.28013-.35063-2.52443-2.39018-2.52443 1.87685-2.443-1.83398-2.52103 4.01444-2.443-2.02284-2.52443-.21757-2.52443-1.55162-2.443-.7994-2.52442-.61727-2.4464 6.26614-2.52442 2.98953-2.36157-5.26998-2.52443-1.14629-2.52443 2.57313-2.443-7.6224-2.52103 3.32422-2.443-.16751-2.52443 5.33693-2.52443-1.96583-2.443.01125-2.52442 3.01348-2.443-.91901-2.52782.02163-2.28013-.1112-2.52443-3.29559-2.52443 2.13733-2.443-7.1601-2.52104.928-2.443.34651-2.52442 2.67308-2.52443 2.31212-2.443-2.21856-2.52443-1.78703-2.4464-2.61751-2.52442 7.13334-2.28013-5.08355-2.52443 1.2607-2.52443.28925-2.443-3.11098-2.52103.63157-2.443 5.29315-2.52443-1.03779-2.52443-3.65965-2.443 1.23223-2.52443-4.10032-2.443.97605-2.52782 3.6445-2.28013 1.7132-2.52443 1.38925-2.52443 1.1398-2.443-4.83879-2.52103-1.24869-2.443.70547-2.52443.55344-2.52443.32575-2.443-2.54157-2.52443-2.9757-2.443 1.4514-2.52782 3.55306-2.36156.92021-2.52443 1.00637-2.52443.14338-2.443-3.945-2.52103-.20855-2.443-1.69525-2.52443 3.73848-2.52443-2.85002-2.443 1.38313-2.52443-.48871-2.443-.27643-2.52782 3.22476-2.28013-.63382-2.52443.64767-2.52443-.58253-2.443-3.33192-2.52103-.93-2.443 1.55817-2.52443 1.63708-2.52443.19276-2.443-3.02643-2.52442-2.26982-2.443.29456-2.52782 3.49701-2.28013 1.05354-2.52443 3.00999-2.52443-6.67788-2.443 1.41288-2.52104-2.41607-2.443-.95317-2.52442 6.59142-2.52443-2.57442-2.443-2.58418-2.52443-2.22418-2.443 3.31572-2.52782 1.64368-2.28013 2.13495-2.52443 4.78138-2.52443-2.0845-2.443-3.5213-2.52443-3.3192-2.443-.18117-2.52103 6.53581-2.52443-4.00129-2.443 1.62895-2.52443-6.42695-2.443-2.4473-2.52782 4.95605-2.36156 3.68458L6 90.87212z" fill="#8ca252"/></g><path class="background" aria-hidden="true" d="M6 5h300v200H6z"/><g aria-roledescription="area mark container"><path aria-label="date (year-month): 2000; Sum of count: 0.00318044861065; series: Mining and Extraction" aria-roledescription="area mark" d="M6 145.81018l2.52443-.43856 2.36156 1.47984 2.52783-2.20234 2.443.5266 2.52442 5.42247 2.443.40773 2.52443-.2413 2.52104-5.2621 2.443 4.42017 2.52442 1.34295 2.443 2.68097 2.52443 3.02529 2.52443-5.55083 2.28013.88762 2.52782-1.38594 2.443.25653 2.52443-.3589 2.443 5.77956 2.52443-2.55379 2.52443-1.30523 2.443-.55991 2.52103.9123 2.443-.58653 2.52443 1.98349 2.52443-2.30474 2.28013 1.19923 2.52782-1.29645 2.443.81916 2.52443-1.56662 2.443 2.48461 2.52442-2.6019 2.52443-.94106 2.443-1.35446 2.52104 1.29038 2.443 3.3193 2.52442-1.6201 2.52443 2.27933 2.28013-1.06545 2.52783-1.00883 2.443-1.85497 2.52442-1.18466 2.443-1.27368 2.52443 5.20837 2.52443-2.7427 2.443-3.10255 2.52103 2.58893 2.443 2.40382 2.52443-.63729 2.52443-2.75284 2.36156.2075 2.52783-2.19753 2.443.87859 2.52442 3.32746 2.443-.67904 2.52443-.767 2.52443-2.7575 2.443.67378 2.52103 2.49512 2.443 1.29228 2.52443-3.01201 2.52443-.24621 2.28013.20023 2.52782-2.88419 2.443-.99644 2.52443 2.02628 2.443 1.34002 2.52443.64486 2.52443 1.30606 2.443-3.54136 2.52103 3.238 2.443.27185 2.52443-5.80592 2.52443 3.7977 2.28013 1.03193 2.52443-2.84935 2.44639.99287 2.52443.32983 2.443.11343 2.52443-.88428 2.52443-1.45798 2.443-.4363 2.52103 1.30559 2.443.37276 2.52443-.15295 2.52443 4.41974 2.28013 1.32298 2.52782 1.86885 2.443-.63794 2.52443-3.51555 2.443-3.81367 2.52442 2.89822 2.52443-1.80402 2.443 4.16746 2.52104-1.20476 2.443 2.41124 2.52442.02851 2.52443-.13068 2.36157 1.42006 2.52443-1.20877 2.44639-1.74028 2.52443-1.94348 2.443-1.3509 2.52442-.0767 2.52443.14392 2.443 3.12362 2.52104-1.22032 2.443-.81094 2.52442.5596 2.52443 1.5641 2.28013 1.08604 2.52443-.91927 2.4464 1.48304 2.52442 1.85137 2.443.42816 2.52443-1.23732 2.52443-.62854 2.443-1.3559 2.52103.10258 2.443 1.17783 2.52443-3.18667L306 151.30371v1.05418l-2.52443-2.23392-2.52443 3.58724-2.443-1.02403-2.52103-.31096-2.443 1.24421-2.52443.8616-2.52443 1.2447-2.443-.33902-2.52443-1.80882-2.44639-.98239-2.52443.50996-2.28013-1.70397-2.52443-1.5872-2.52443-.62474-2.443.6067-2.52103.8792-2.443-2.87374-2.52443-.3424-2.52443-.00646-2.443 1.75546-2.52442 1.99418-2.4464 1.80185-2.52442 1.1326-2.36157-1.74253-2.52443.43182-2.52443-.05728-2.443-2.60712-2.52103.99102-2.443-3.66853-2.52443 2.03502-2.52443-2.94163-2.443 3.87012-2.52442 3.2166-2.443.46675-2.52782-1.68464-2.28013-1.1188-2.52443-4.39144-2.52443-.00074-2.443-.47315-2.52104-1.51226-2.443.37704-2.52442 1.99637-2.52443.62616-2.443.112-2.52443-.64786-2.4464-1.1036-2.52442 2.72571-2.28013-.7454-2.52443-3.76655-2.52443 5.78312-2.443-.44214-2.52103-3.71722-2.443 3.83775-2.52443-1.30422-2.52443-.37341-2.443-1.24931-2.52443-2.2632-2.443 1.08128-2.52782 3.18207-2.28013-.43829-2.52443.3492-2.52443 2.73195-2.443-1.17542-2.52103-2.62838-2.443-.87907-2.52443 2.80401-2.52443 1.23204-2.443.64049-2.52443-3.41185-2.443-.56129-2.52782 1.79113-2.36156-.155-2.52443 2.89349-2.52443.7764-2.443-2.386-2.52103-2.65434-2.443 2.92733-2.52443 2.59408-2.52443-4.67362-2.443 1.0769-2.52443 1.36917-2.443 1.87483-2.52782 1.06199-2.28013.9115-2.52443-1.9962-2.52443 1.55736-2.443-3.63417-2.52103-1.14862-2.443 1.52509-2.52443.62978-2.52443 2.24115-2.443-2.0828-2.52442 1.35343-2.443-.63926-2.52782 1.12304-2.28013-1.04123-2.52443 2.2363-2.52443-2.01638-2.443.41357-2.52104-.52149-2.443.33705L53.0718 154.6l-2.52443 2.54665-2.443-5.47562-2.52443.75733-2.443-.64724-2.52782.98153-2.28013-.46906-2.52443 5.02958-2.52443-2.5584-2.443-3.05504-2.52443-.15729-2.443-5.0449-2.52103 5.11915-2.52443-.02906-2.443-.51035-2.52443-4.83329-2.443-.77927-2.52782 1.97512-2.36156-1.23362L6 146.44627z" fill="#bd9e39"/></g><path class="background" aria-hidden="true" d="M6 5h300v200H6z"/><g aria-roledescription="area mark container"><path aria-label="date (year-month): 2000; Sum of count: 0.124707063944; series: Construction" aria-roledescription="area mark" d="M6 32.08403l2.52443-1.40835 2.36156 1.60345 2.52783-.36479 2.443-1.59485 2.52442-.71452 2.443 1.76337 2.52443-.35635 2.52104 1.4453 2.443-1.67375 2.52442 4.05094 2.443 1.25572 2.52443-1.64744 2.52443.19046 2.28013.16574 2.52782-1.36548 2.443-.4761 2.52443-.99844 2.443.18369 2.52443 1.50352 2.52443.13742 2.443 1.72088 2.52103-.02533 2.443-.31652 2.52443.30543 2.52443-2.85884 2.28013 2.11598 2.52782-1.39248 2.443.33424 2.52443.75743 2.443.60848 2.52442-2.42217 2.52443 2.53195 2.443-1.27524 2.52104 1.72425 2.443-.88409 2.52442-1.05883 2.52443 1.2408 2.28013 2.06413 2.52783-.90871 2.443.36842 2.52442-4.05464 2.443-.2684 2.52443-1.13611 2.52443 1.56215 2.443 2.76673 2.52103-1.85984 2.443.86942 2.52443.02696 2.52443-1.76699 2.36156.2869 2.52783-4.1397 2.443 2.2031 2.52442-1.87577 2.443.67404 2.52443 1.71652 2.52443-2.09967 2.443 1.4329 2.52103 2.8694 2.443.87901 2.52443-1.38345 2.52443-2.29888 2.28013-.12796 2.52782-1.7035 2.443.20528 2.52443-.49979 2.443 1.40596 2.52443-.18727 2.52443 4.69217 2.443-3.45628 2.52103-1.18328 2.443 3.37459 2.52443-1.05394 2.52443.31096 2.28013.46208 2.52443-4.98158 2.44639 2.14958 2.52443-.57209 2.443-1.12955 2.52443.19313 2.52443 3.26938 2.443 2.49868 2.52103-3.50052 2.443 4.9088 2.52443-2.40882 2.52443-.90884 2.28013.5498 2.52782-2.89038 2.443 1.86053 2.52443-2.53828 2.443-1.27657 2.52442-.39823 2.52443-.40847 2.443 1.16077 2.52104.48099 2.443 2.26473 2.52442-.04403 2.52443.68246 2.36157 1.29604 2.52443-3.28021 2.44639.31333 2.52443-.31143 2.443-1.12406 2.52442 1.11213 2.52443-.37755 2.443 1.81362 2.52104-2.62332 2.443 2.80992 2.52442.73571 2.52443.01533 2.28013.55732 2.52443-1.88905 2.4464-.7158 2.52442.42956 2.443-1.03398 2.52443 1.04287 2.52443.2523 2.443-1.52204 2.52103 1.13095 2.443.3165 2.52443-.41857L306 32.0216V64.581l-2.52443-5.02232-2.52443 1.25731-2.443-3.21549-2.52103-2.22991-2.443-.55702-2.52443-1.36746-2.52443.697-2.443.05952-2.52443 3.30928-2.44639 1.4324-2.52443 4.10892-2.28013.81235-2.52443-3.22721-2.52443-1.14573-2.443-4.11718-2.52103.90836-2.443-3.54004-2.52443-3.7195-2.52443-1.22056-2.443 2.3675-2.52442 2.3916-2.4464 8.82158-2.52442 3.44857-2.36157-2.63999-2.52443-2.08827-2.52443-.32185-2.443-10.17603-2.52103.00855-2.443-3.22512-2.52443-1.18535-2.52443 1.4184-2.443 1.79754-2.52442 6.36931-2.443 3.91478-2.52782 3.35738-2.28013 1.96737-2.52443-4.62227-2.52443.56684-2.443-8.48347-2.52104-1.09651-2.443 1.01712-2.52442-3.33496-2.52443-.70633-2.443.08257-2.52443 3.8566-2.4464-1.7835-2.52442 7.9787-2.28013-1.37116-2.52443.69026-2.52443 1.69144-2.443-11.56982-2.52103.49046-2.443 4.28688-2.52443-4.93554-2.52443-2.05723-2.443.13138-2.52443 1.56113-2.443 3.39287-2.52782 6.97032-2.28013 3.05365-2.52443.58287-2.52443-1.24528-2.443-5.72472-2.52103-4.18252-2.443-1.69837-2.52443-.46437-2.52443-1.20368-2.443.56992-2.52443 3.19407-2.443 2.4567-2.52782 5.14789-2.36156.57004-2.52443-.28146-2.52443-1.3183-2.443-4.92448-2.52103 1.1085-2.443-2.4458-2.52443-3.02002-2.52443 1.30315-2.443.47376-2.52443 5.81893-2.443.97409-2.52782 4.76797-2.28013 1.31436-2.52443-1.00547-2.52443-1.75877-2.443-3.36932-2.52103-3.07524-2.443-.39315-2.52443-2.21862-2.52443.24483-2.443-.67336-2.52442 1.04387-2.443 4.90781-2.52782 3.7352-2.28013-1.21188-2.52443 5.68814-2.52443-7.0901-2.443-2.2395-2.52104-2.81699-2.443-2.14601-2.52442.47388-2.52443-3.18976-2.443-.06529-2.52443 4.06536-2.443 4.23164-2.52782 2.19589-2.28013 4.3802-2.52443-.1865-2.52443-1.3223-2.443-5.52343-2.52443-6.08414-2.443-.23449-2.52103-.24623-2.52443-2.15911-2.443-1.3295-2.52443 1.9341-2.443 4.19223-2.52782 5.46081-2.36156 2.28094L6 57.02544z" fill="#6b6ecf"/></g><path class="background" aria-hidden="true" d="M6 5h300v200H6z"/><g aria-roledescription="area mark container"><path aria-label="date (year-month): 2000; Sum of count: 0.12286575159; series: Manufacturing" aria-roledescription="area mark" d="M6 121.23703l2.52443.68865 2.36156-1.08619 2.52783-6.5722 2.443 3.5522 2.52442 9.41527 2.443-2.41227 2.52443.26747 2.52104-6.40152 2.443 2.27479 2.52442 3.17282 2.443 3.09754 2.52443.64682 2.52443-5.60783 2.28013-.89774 2.52782-1.0315 2.443-2.3382 2.52443 1.53764 2.443 3.16103 2.52443-.13458 2.52443-1.2975 2.443-.6931 2.52103 1.56064 2.443-1.39401 2.52443 1.84047 2.52443-1.24633 2.28013-.91028 2.52782-2.32975 2.443 2.8787 2.52443.45977 2.443 2.45582 2.52442-1.7782 2.52443-1.34475 2.443-.35569 2.52104.54982 2.443 2.0957 2.52442-.49038 2.52443 3.62815 2.28013-1.96936 2.52783-2.36878 2.443-.77288 2.52442-.42408 2.443-1.3536 2.52443 4.50349 2.52443-3.67013 2.443-.38326 2.52103 3.18635 2.443 1.54638 2.52443 1.08273 2.52443-3.4278 2.36156.66317 2.52783-3.72584 2.443 1.32162 2.52442 5.59133 2.443-2.75064 2.52443 2.88996 2.52443-4.0737 2.443-.38202 2.52103 2.4513 2.443 2.38213 2.52443-.77572 2.52443-.18375 2.28013-1.2341 2.52782-2.84981 2.443.25868 2.52443 3.11382 2.443-2.55186 2.52443 2.95475 2.52443 1.18402 2.443-5.45456 2.52103 3.56616 2.443 1.60975 2.52443-4.35817 2.52443 2.67676 2.28013 3.2485 2.52443-5.65995 2.44639 2.54321 2.52443 2.62503 2.443-1.93564 2.52443-.273 2.52443-1.10615 2.443-1.04803 2.52103-.42643 2.443 1.74467 2.52443.62594 2.52443 3.14558 2.28013.50318 2.52782.1072 2.443 2.50541 2.52443-2.19028 2.443-1.7452 2.52442 2.85755 2.52443-4.66213 2.443 1.66662 2.52104-1.55193 2.443 3.96835 2.52442.7701 2.52443-.35194 2.36157 1.16546 2.52443-2.4316 2.44639-2.269 2.52443.08385 2.443-1.14839 2.52442-.5771 2.52443-.87849 2.443 3.36558 2.52104-2.575 2.443-1.7316 2.52442-1.69763 2.52443.97217 2.28013.3201 2.52443-3.42597 2.4464 2.18927 2.52442 3.32423 2.443 1.08444 2.52443.09487 2.52443-1.18867 2.443-1.30445 2.52103-.46547 2.443 4.1606 2.52443-3.0357L306 127.09768v24.20603l-2.52443-2.07892-2.52443 3.18667-2.443-1.17783-2.52103-.10259-2.443 1.35591-2.52443.62854-2.52443 1.23732-2.443-.42816-2.52443-1.85137-2.44639-1.48304-2.52443.91927-2.28013-1.08604-2.52443-1.5641-2.52443-.5596-2.443.81094-2.52103 1.22032-2.443-3.12362-2.52443-.14392-2.52443.0767-2.443 1.3509-2.52442 1.94348-2.4464 1.74028-2.52442 1.20877-2.36157-1.42006-2.52443.13068-2.52443-.02851-2.443-2.41124-2.52103 1.20476-2.443-4.16746-2.52443 1.80402-2.52443-2.89822-2.443 3.81367-2.52442 3.51555-2.443.63794-2.52782-1.86885-2.28013-1.32298-2.52443-4.41974-2.52443.15295-2.443-.37276-2.52104-1.3056-2.443.43631-2.52442 1.45798-2.52443.88428-2.443-.11343-2.52443-.32983-2.4464-.99287-2.52442 2.84935-2.28013-1.03192-2.52443-3.7977-2.52443 5.80591-2.443-.27185-2.52103-3.238-2.443 3.54136-2.52443-1.30606-2.52443-.64486-2.443-1.34002-2.52443-2.02628-2.443.99644-2.52782 2.88419-2.28013-.20023-2.52443.2462-2.52443 3.01202-2.443-1.29228-2.52103-2.49512-2.443-.67378-2.52443 2.7575-2.52443.767-2.443.67904-2.52443-3.32746-2.443-.87859-2.52782 2.19753-2.36156-.2075-2.52443 2.75284-2.52443.63729-2.443-2.40382-2.52103-2.58893-2.443 3.10256-2.52443 2.74269-2.52443-5.20837-2.443 1.27368-2.52443 1.18466-2.443 1.85497-2.52782 1.00883-2.28013 1.06545-2.52443-2.27933-2.52443 1.6201-2.443-3.3193-2.52103-1.29038-2.443 1.35446-2.52443.94106-2.52443 2.6019-2.443-2.48461-2.52442 1.56662-2.443-.81916-2.52782 1.29645-2.28013-1.19923-2.52443 2.30474-2.52443-1.9835-2.443.58654-2.52104-.9123-2.443.5599-2.52442 1.30524-2.52443 2.55379-2.443-5.77956-2.52443.3589-2.443-.25653-2.52782 1.38594-2.28013-.88762-2.52443 5.55083-2.52443-3.02529-2.443-2.68097-2.52443-1.34295-2.443-4.42018-2.52103 5.2621-2.52443.2413-2.443-.40772-2.52443-5.42247-2.443-.5266-2.52782 2.20234-2.36156-1.47984L6 145.81018z" fill="#8c6d31"/></g><path class="background" aria-hidden="true" d="M6 5h300v200H6z"/><g aria-roledescription="area mark container"><path aria-label="date (year-month): 2000; Sum of count: 0.167392032139; series: Wholesale and Retail Trade" aria-roledescription="area mark" d="M6 171.5216l2.52443-1.08241 2.36156-.03968 2.52783 1.86571 2.443-.05276 2.52442 1.2977 2.443 2.1999 2.52443-2.68157 2.52104.17252 2.443.91725 2.52442 2.58138 2.443-.94898 2.52443.25365 2.52443-2.99655 2.28013-1.63292 2.52782 4.29755 2.443-2.81787 2.52443.9006 2.443 4.456 2.52443-1.76497 2.52443-1.01961 2.443 1.65061 2.52103-1.2991 2.443.11626 2.52443 1.02413 2.52443-2.00293 2.28013-.50857 2.52782-.82486 2.443.98604 2.52443-.80631 2.443 2.64511 2.52442-2.14382 2.52443-1.38049 2.443-.92064 2.52104.45243 2.443 3.0833 2.52442-.74677 2.52443 2.0454 2.28013.31814 2.52783-2.42744 2.443-1.32875 2.52442-1.43786 2.443-.05468 2.52443 4.54524 2.52443-2.92784 2.443.20679 2.52103 1.33082 2.443.79458 2.52443-3.29136 2.52443-.84513 2.36156-.17328 2.52783-.9379 2.443 1.05198 2.52442 2.51068 2.443-.0201 2.52443.8215 2.52443-2.6363 2.443-.48294 2.52103 3.36872 2.443-.19113 2.52443-2.93958 2.52443.1167 2.28013.97945 2.52782-2.14123 2.443-.80255 2.52443.17174 2.443.30026 2.52443.32995 2.52443 2.92665 2.443-1.88815 2.52103 2.45383 2.443.52454 2.52443-4.03355 2.52443 1.8846 2.28013 1.6562 2.52443-.46464 2.44639-2.46823 2.52443-.53944 2.443 1.69684 2.52443 1.63877 2.52443-2.80844 2.443-.49865 2.52103.13354 2.443 1.72684 2.52443-.73056 2.52443 2.51712 2.28013 2.20654 2.52782-1.0441 2.443 2.4142 2.52443-4.09004 2.443-1.59567 2.52442.46144 2.52443-.68245 2.443 2.90897 2.52104 1.3173 2.443-1.23508 2.52442.28744 2.52443 2.13988 2.36157.45535 2.52443-.53376 2.44639-1.54891 2.52443-.94822 2.443-2.31156 2.52442.1805 2.52443 1.4777 2.443.17235 2.52104.26393 2.443.2471 2.52442.65826 2.52443.36434 2.28013.53511 2.52443-1.25249 2.4464 1.22806 2.52442.93496 2.443.44355 2.52443.45219 2.52443-.61884 2.443-1.46662 2.52103-.0038 2.443 1.41853 2.52443-1.45088 2.52443.8472V205H6z" fill="#ad494a"/></g><path class="background" aria-hidden="true" d="M6 5h300v200H6z"/><g aria-roledescription="area mark container"><path aria-label="date (year-month): 2000; Sum of count: 0.0395045195849; series: Transportation and Utilities" aria-roledescription="area mark" d="M6 163.62069l2.52443-.71528 2.36156.73591 2.52783.73948 2.443.2438 2.52442 2.00068 2.443.65283 2.52443-1.67091 2.52104-1.69263 2.443 3.81004 2.52442 3.76711 2.443-2.61363 2.52443.9311 2.52443-2.90904 2.28013-1.78342 2.52782 2.2581 2.443-1.05962 2.52443-.47765 2.443 4.78392 2.52443-1.12917 2.52443-.82722 2.443-1.11316 2.52103-.21082 2.443.15211 2.52443.89881 2.52443-1.35466 2.28013-.17623 2.52782-.47793 2.443 1.31234 2.52443-.83637 2.443 2.72784 2.52442-1.12978 2.52443-2.02005 2.443-1.6171 2.52104 1.48123 2.443 2.9624 2.52442-1.97363 2.52443 2.30724 2.28013-.0278 2.52783-1.7982 2.443-1.01036L107.55061 165l2.443-.03822 2.52443 5.16996 2.52443-3.1879 2.443-.10052 2.52103 1.04568 2.443.71791 2.52443-1.7645 2.52443-2.24645 2.36156.04638 2.52783-.66869 2.443 1.15615 2.52442 3.07208 2.443-.22711 2.52443.3804 2.52443-2.09574 2.443-.83365 2.52103 3.56338 2.443.2145 2.52443-4.13786 2.52443.91843 2.28013-.0881 2.52782-2.6154 2.443.14504 2.52443-.1961 2.443 1.06313 2.52443 1.08626 2.52443 2.23692 2.443-3.45088 2.52103 4.33987 2.443.2609 2.52443-5.89197 2.52443 2.67798 2.28013 1.13566 2.52443-1.28016 2.44639-1.17649 2.52443-.21321 2.443 1.67906 2.52443 1.89724 2.52443-2.07682 2.443-1.61974 2.52103 1.24859 2.443 1.48827 2.52443-1.39247 2.52443 2.22017 2.28013 1.67833 2.52782.47918 2.443 1.43725 2.52443-4.44693 2.443-3.17366 2.52442 3.28381 2.52443-1.42794 2.443 2.8831 2.52104.76451 2.443.2916 2.52442-.64484 2.52443 1.43385 2.36157 1.06273 2.52443-.60766 2.44639-1.66919 2.52443-2.0003 2.443-2.5345 2.52442 1.6297 2.52443.66583 2.443.9202 2.52104.43936 2.443-.80402 2.52442.3533 2.52443.07287 2.28013.79745 2.52443-1.4489 2.4464 2.1373 2.52442 1.40816 2.443.35394 2.52443-.19516 2.52443-.60508 2.443-.55808 2.52103-.3531 2.443 1.01166 2.52443-2.267L306 169.47825v7.8863l-2.52443-.8472-2.52443 1.45089-2.443-1.41854-2.52103.00381-2.443 1.46662-2.52443.61884-2.52443-.45219-2.443-.44355-2.52443-.93496-2.44639-1.22806-2.52443 1.25249-2.28013-.5351-2.52443-.36435-2.52443-.65827-2.443-.24709-2.52103-.26393-2.443-.17234-2.52443-1.4777-2.52443-.18051-2.443 2.31156-2.52442.94822-2.4464 1.54891-2.52442.53376-2.36157-.45535-2.52443-2.13988-2.52443-.28744-2.443 1.23509-2.52103-1.31731-2.443-2.90897-2.52443.68245-2.52443-.46144-2.443 1.59567-2.52442 4.09003-2.443-2.41418-2.52782 1.04409-2.28013-2.20654-2.52443-2.51712-2.52443.73056-2.443-1.72684-2.52104-.13354-2.443.49865-2.52442 2.80844-2.52443-1.63877-2.443-1.69684-2.52443.53944-2.4464 2.46823-2.52442.46463-2.28013-1.65619-2.52443-1.8846-2.52443 4.03355-2.443-.52454-2.52103-2.45383-2.443 1.88815-2.52443-2.92665-2.52443-.32995-2.443-.30026-2.52443-.17174-2.443.80255-2.52782 2.14123-2.28013-.97945-2.52443-.1167-2.52443 2.93958-2.443.19113-2.52103-3.36872-2.443.48293-2.52443 2.63632-2.52443-.8215-2.443.0201-2.52443-2.5107-2.443-1.05197-2.52782.9379-2.36156.17328-2.52443.84513-2.52443 3.29136-2.443-.79458-2.52103-1.33082-2.443-.2068-2.52443 2.92785-2.52443-4.54524-2.443.05468-2.52443 1.43786-2.443 1.32875-2.52782 2.42744-2.28013-.31814-2.52443-2.0454-2.52443.74676-2.443-3.08329-2.52103-.45243-2.443.92064-2.52443 1.3805-2.52443 2.14381-2.443-2.64511-2.52442.80631-2.443-.98604-2.52782.82486-2.28013.50857-2.52443 2.00293-2.52443-1.02413-2.443-.11627-2.52104 1.29911-2.443-1.65061-2.52442 1.01961-2.52443 1.76498-2.443-4.45602-2.52443-.9006-2.443 2.81788-2.52782-4.29755-2.28013 1.63292-2.52443 2.99655-2.52443-.25365-2.443.94898-2.52443-2.58138-2.443-.91725-2.52103-.17252-2.52443 2.68157-2.443-2.1999-2.52443-1.2977-2.443.05276-2.52782-1.86571-2.36156.03968L6 171.52159z" fill="#843c39"/></g><path class="background" aria-hidden="true" d="M6 5h300v200H6z"/><g aria-roledescription="area mark container"><path aria-label="date (year-month): 2000; Sum of count: 0.0209240040174; series: Information" aria-roledescription="area mark" d="M6 90.87211l2.52443.95221 2.36156-3.68458 2.52783-4.95605 2.443 2.4473 2.52442 6.42695 2.443-1.62895 2.52443 4.0013 2.52104-6.53582 2.443.18117 2.52442 3.3192 2.443 3.5213 2.52443 2.0845 2.52443-4.78138 2.28013-2.13495 2.52782-1.64368 2.443-3.31572 2.52443 2.22418 2.443 2.58418 2.52443 2.57442 2.52443-6.59142 2.443.95317 2.52103 2.41607 2.443-1.41288 2.52443 6.67788 2.52443-3.00999 2.28013-1.05354 2.52782-3.497 2.443-.29457 2.52443 2.26982 2.443 3.02643 2.52442-.19276 2.52443-1.63708 2.443-1.55817 2.52104.93 2.443 3.33192 2.52442.58253 2.52443-.64767 2.28013.63382 2.52783-3.22476 2.443.27643 2.52442.4887 2.443-1.38312 2.52443 2.85002 2.52443-3.73848 2.443 1.69525 2.52103.20856 2.443 3.94499 2.52443-.14338 2.52443-1.00637 2.36156-.92021 2.52783-3.55306 2.443-1.4514 2.52442 2.9757 2.443 2.54157 2.52443-.32575 2.52443-.55344 2.443-.70547 2.52103 1.2487 2.443 4.83879 2.52443-1.1398 2.52443-1.38927 2.28013-1.71319 2.52782-3.6445 2.443-.97605 2.52443 4.10032 2.443-1.23223 2.52443 3.65965 2.52443 1.03779 2.443-5.29315 2.52103-.63157 2.443 3.11098 2.52443-.28924 2.52443-1.26071 2.28013 5.08355 2.52443-7.13334 2.44639 2.6175 2.52443 1.78704 2.443 2.21856 2.52443-2.31212 2.52443-2.67308 2.443-.3465 2.52103-.928 2.443 7.16009 2.52443-2.13733 2.52443 3.29558 2.28013.1112 2.52782-.02162 2.443.919 2.52443-3.01347 2.443-.01125 2.52442 1.96583 2.52443-5.33693 2.443.16751 2.52104-3.32423 2.443 7.6224 2.52442-2.57312 2.52443 1.14629 2.36157 5.26998 2.52443-2.98953 2.44639-6.26614 2.52443.61728 2.443.7994 2.52442 1.5516 2.52443.21758 2.443 2.02284 2.52104-4.01444 2.443 1.83398 2.52442-1.87685 2.52443 2.39018 2.28013.35063 2.52443-3.37715 2.4464-.67758 2.52442 2.77207 2.443 2.32343 2.52443-.67073 2.52443.8032 2.443-1.6425 2.52103.42606 2.443 3.4598 2.52443-3.5738L306 101.7841v4.0032l-2.52443-5.77903-2.52443 3.17356-2.443-3.51909-2.52103-.2364-2.443 3.17248-2.52443-.9417-2.52443.80475-2.443-2.64108-2.52443-3.1938-2.44639 1.15851-2.52443 2.07383-2.28013-.70237-2.52443-2.11223-2.52443 2.35884-2.443-2.36323-2.52103 4.17153-2.443-1.93873-2.52443-.80908-2.52443-1.51086-2.443-.1743-2.52442.02394-2.4464 5.83917-2.52442 2.92373-2.36157-4.23645-2.52443-1.93137-2.52443 1.81688-2.443-7.09644-2.52103 3.0584-2.443-.15961-2.52443 5.74753-2.52443-2.98245-2.443.26573-2.52442 3.12227-2.443-2.04205-2.52782.86525-2.28013.50115-2.52443-3.30084-2.52443 1.70396-2.443-6.20132-2.52104.42924-2.443 1.93472-2.52442 1.17275-2.52443 1.24362-2.443-1.719-2.52443-.20434-2.4464-3.56545-2.52442 6.39074-2.28013-5.1914-2.52443.87863-2.52443 1.2847-2.443-1.8959-2.52103.53716-2.443 5.23683-2.52443-1.37307-2.52443-4.27058-2.443 1.7783-2.52443-4.32199-2.443 1.9196-2.52782 3.10085-2.28013 2.05494-2.52443.49254-2.52443 1.79536-2.443-4.4099-2.52103-1.18953-2.443.47572-2.52443.7106-2.52443-.3753-2.443-2.67105-2.52443-2.10656-2.443.72534-2.52782 4.13785-2.36156.42222-2.52443 1.80234-2.52443.673-2.443-3.32757-2.52103-2.08086-2.443-.1281-2.52443 2.89458-2.52443-3.01473-2.443 1.54522-2.52443.36697-2.443.1189-2.52782 2.77553-2.28013.36405-2.52443-1.18795-2.52443.482-2.443-4.10174-2.52103-.95033-2.443 2.14221-2.52443 2.3945-2.52443-.23201-2.443-3.2708-2.52442-1.741-2.443-.05071-2.52782 3.3022-2.28013 1.2813-2.52443 2.4631-2.52443-5.3189-2.443.69309-2.52104-2.23492-2.443-.94768-2.52442 6.13353-2.52443-2.4111-2.443-3.87614-2.52443-1.5321-2.443 2.58402-2.52782 1.14936-2.28013.85837-2.52443 6.4003-2.52443-1.04867-2.443-4.97498-2.52443-4.03095-2.443 1.03326-2.52103 6.6695-2.52443-4.03566-2.443.14097-2.52443-5.03279-2.443-3.75736-2.52782 5.96232-2.36156 2.54053L6 95.0569z" fill="#b5cf6b"/></g><g><path class="background" aria-hidden="true" d="M6 5h300v200H6z"/><g aria-roledescription="area mark container"><path aria-label="date (year-month): 2000; Sum of count: 0.0381653833278; series: Finance" aria-roledescription="area mark" d="M6 68.84332l2.52443 1.05533 2.36156-.6607 2.52783-5.29058 2.443-.88028 2.52442-1.8218 2.443 2.00175 2.52443 1.34816 2.52104-.62033 2.443-1.5992 2.52442 6.0882 2.443 3.33916 2.52443 3.00377 2.52443.18835 2.28013-3.26363 2.52782-4.78588 2.443-2.09994 2.52443-2.81969 2.443.98975 2.52443 4.99962 2.52443-4.40559 2.443 2.1914 2.52103 2.81105 2.443.9135 2.52443 7.57806 2.52443-5.22292 2.28013.18759 2.52782-4.07837 2.443-3.32972 2.52443.77544 2.443 1.54953 2.52442.14522 2.52443.294 2.443-.92805 2.52104 1.91683 2.443 4.74981 2.52442.04376 2.52443 1.52767 2.28013-2.18492 2.52783-1.59813 2.443-.7143 2.52442-3.76088 2.443-1.56236 2.52443.76071 2.52443.94858 2.443 2.6295 2.52103-.76731 2.443 4.49508 2.52443.05778 2.52443-.39808 2.36156-1.25553 2.52783-3.01047 2.443-2.6237 2.52442.80598 2.443-1.39718 2.52443-.02281 2.52443-.3571 2.443-.17023 2.52103 5.10757 2.443 5.40092 2.52443.81738 2.52443-.47452 2.28013-2.00164 2.52782-5.88003 2.443-1.46357 2.52443-1.96 2.443-1.17057 2.52443 3.1765 2.52443 5.25598 2.443-4.27035 2.52103.18373 2.443 7.56718 2.52443-1.3086 2.52443-2.58892 2.28013 3.29012 2.52443-7.00523 2.44639 1.72004 2.52443-2.25017 2.443.23692 2.52443.22609 2.52443 3.28833 2.443-1.58454 2.52103.35558 2.443 7.3718 2.52443-1.41163 2.52443 2.95575 2.28013-.62835 2.52782-.33535 2.443-1.55648 2.52443-6.72095 2.443-2.55783 2.52442-1.0715 2.52443 1.0642 2.443.70785 2.52104-.77642 2.443 8.75191 2.52442.11283 2.52443 2.17842 2.36157 3.87755 2.52443-3.51195 2.44639-8.16596 2.52443-2.22964 2.443-.80434 2.52442 2.19816 2.52443 3.9016 2.443 2.01022 2.52104-3.2138 2.443 3.38671 2.52442-1.3397 2.52443 3.55745 2.28013.18496 2.52443-2.79635 2.4464-1.46451 2.52442-.2125 2.443-.24373 2.52443-.84387 2.52443 1.9088 2.443.78403 2.52103.94061 2.443 2.80696 2.52443-2.9965L306 80.5938v9.44756l-2.52443-6.70749-2.52443 4.47006-2.443-3.14613-2.52103-.73697-2.443-.5614-2.52443-3.39066-2.52443.7706-2.443-.49432-2.52443.94176-2.44639 2.23385-2.52443 3.51089-2.28013-.0046-2.52443-4.20499-2.52443 2.54526-2.443-3.24513-2.52103 2.60945-2.443-2.95576-2.52443-3.40315-2.52443-3.30039-2.443 1.00377-2.52442 3.49878-2.4464 7.86244-2.52442 2.6035-2.36157-3.86112-2.52443-3.43564-2.52443 1.6694-2.443-9.70258-2.52103 2.53323-2.443-.7268-2.52443.42381-2.52443-1.31926-2.443 2.95723-2.52442 6.62843-2.443-.16752-2.52782.51733-2.28013 1.28062-2.52443-4.9489-2.52443 2.40053-2.443-7.31294-2.52104-.59254-2.443 2.01285-2.52442-2.83948-2.52443 1.33061-2.443-.67897-2.52443 2.31447-2.4464-1.81306-2.52442 6.56487-2.28013-4.62892-2.52443 1.63031-2.52443 1.03885-2.443-5.81507-2.52103-.24982-2.443 4.04868-2.52443-4.01282-2.52443-3.31862-2.443 1.16797-2.52443 1.83193-2.443.37566-2.52782 5.30304-2.28013 2.51028-2.52443-.74437-2.52443 1.03109-2.443-5.35163-2.52103-2.9423-2.443.58305-2.52443-1.80163-2.52443-.51758-2.443 1.99215-2.52443-1.03355-2.443 2.71033-2.52782 2.69142-2.36156 1.80184-2.52443.98524-2.52443-1.83989-2.443-4.07012-2.52103.6809-2.443-2.78693-2.52443-.34852-2.52443-2.39776-2.443 3.0362-2.52443 3.6223-2.443.74697-2.52782 1.88939-2.28013.80352-2.52443-1.2193-2.52443.8462-2.443-4.16878-2.52103-2.25366-2.443.62398-2.52443.51613-2.52443-.4418-2.443-.8672-2.52442-1.07996-2.443 1.74498-2.52782 3.48997-2.28013.46214-2.52443 3.84048-2.52443-6.77246-2.443 1.03441-2.52104-3.41256-2.443-2.06206-2.52442 3.8149-2.52443-3.58245-2.443-2.13728-2.52443 1.69002-2.443 3.3806-2.52782 3.33008-2.28013 4.016-2.52443-.37389-2.52443-2.23073-2.443-4.09245-2.52443-4.1559-2.443-.24385-2.52103 1.08625-2.52443-2.30504-2.443-.90196-2.52443 1.48292-2.443 1.22483L10.886 77.1929l-2.36156.81387L6 76.4764z" fill="#637939"/></g></g><g><path class="background" aria-hidden="true" d="M6 5h300v200H6z"/><g aria-roledescription="area mark container"><path aria-label="date (year-month): 2000; Sum of count: 0.109641781051; series: Business services" aria-roledescription="area mark" d="M6 10.15567l2.52443.68892 2.36156-.49436 2.52783.22253 2.443-2.65742 2.52442 1.18549 2.443-1.2532 2.52443 1.2753 2.52104.862 2.443-.26282 2.52442 3.0292 2.443.26669 2.52443-2.01449 2.52443.23336 2.28013 2.42072 2.52782-3.65044 2.443-1.00274 2.52443.24882 2.443-.6192 2.52443.70443 2.52443-1.1473 2.443.31032 2.52103.54937 2.443 1.1524 2.52443-.68518 2.52443-.06728 2.28013 2.03426 2.52782-2.6028 2.443-1.50225 2.52443-.1379 2.443.63742 2.52442.40434 2.52443-.76055 2.443.12082 2.52104.95026 2.443-.51589 2.52442.5054 2.52443.33454 2.28013-.1105 2.52783.07899 2.443-.51215 2.52442-1.20638 2.443.53107 2.52443 1.56056 2.52443-1.74689 2.443 1.06816 2.52103.25687 2.443-.13947 2.52443.60338 2.52443-.213 2.36156-.39164 2.52783-.7453 2.443-.15869 2.52442-.0251 2.443.9501 2.52443-.84817 2.52443-.3166 2.443.42095 2.52103.76342 2.443.94214 2.52443-.80824 2.52443-1.17163 2.28013 1.07429 2.52782-1.24981 2.443-.51903 2.52443.19267 2.443-.21483 2.52443 1.02481 2.52443.79284 2.443-1.13334 2.52103.88523 2.443.37996 2.52443.02505 2.52443-.04432 2.28013-.42547 2.52443-.9104 2.44639-.00342 2.52443-1.4796 2.443.54269 2.52443.74331 2.52443.20483 2.443.1009 2.52103 1.46132 2.443.46917 2.52443-1.01813 2.52443.07945 2.28013.17369 2.52782-1.61586 2.443-.08759 2.52443-.29368 2.443-.66581 2.52442.48726 2.52443.00577 2.443-.1438 2.52104 1.00323 2.443.2752 2.52442.14122 2.52443.6856 2.36157 1.07072 2.52443-1.51112 2.44639-.62197 2.52443-.37537 2.443.81007 2.52442-.42501 2.52443-.5908 2.443.2335 2.52104.31936 2.443 1.88145 2.52442-.46501 2.52443-.069 2.28013-.23514 2.52443-.84059 2.4464-.7354 2.52442.57336 2.443-.05954 2.52443.2621 2.52443-.6282 2.443.22359 2.52103.2647 2.443 1.53891 2.52443-.05937L306 8.80304v23.21858l-2.52443-1.47451-2.52443.41857-2.443-.3165-2.52103-1.13095-2.443 1.52204-2.52443-.2523-2.52443-1.04287-2.443 1.03398-2.52443-.42956-2.44639.7158-2.52443 1.88905-2.28013-.55732-2.52443-.01533-2.52443-.7357-2.443-2.80993-2.52103 2.62332-2.443-1.81362-2.52443.37755-2.52443-1.11213-2.443 1.12406-2.52442.31143-2.4464-.31333-2.52442 3.2802-2.36157-1.29603-2.52443-.68246-2.52443.04403-2.443-2.26473-2.52103-.481-2.443-1.16076-2.52443.40847-2.52443.39823-2.443 1.27657-2.52442 2.53828-2.443-1.86053-2.52782 2.89038-2.28013-.5498-2.52443.90884-2.52443 2.40882-2.443-4.9088-2.52104 3.50052-2.443-2.49868-2.52442-3.26938-2.52443-.19313-2.443 1.12955-2.52443.5721-2.4464-2.14959-2.52442 4.98158-2.28013-.46208-2.52443-.31096-2.52443 1.05394-2.443-3.37459-2.52103 1.18328-2.443 3.45628-2.52443-4.69217-2.52443.18727-2.443-1.40596-2.52443.4998-2.443-.20529-2.52782 1.7035-2.28013.12796-2.52443 2.29888-2.52443 1.38345-2.443-.87901-2.52103-2.8694-2.443-1.4329-2.52443 2.09967-2.52443-1.71652-2.443-.67404-2.52443 1.87577-2.443-2.2031-2.52782 4.1397-2.36156-.2869-2.52443 1.76699-2.52443-.02696-2.443-.86942-2.52103 1.85984-2.443-2.76673-2.52443-1.56215-2.52443 1.1361-2.443.2684-2.52443 4.05465-2.443-.36842-2.52782.90871-2.28013-2.06413-2.52443-1.2408-2.52443 1.05883-2.443.8841-2.52103-1.72426-2.443 1.27524-2.52443-2.53195-2.52443 2.42217-2.443-.60848-2.52442-.75743-2.443-.33424-2.52782 1.39248-2.28013-2.11598-2.52443 2.85884-2.52443-.30543-2.443.31652-2.52104.02533-2.443-1.72088-2.52442-.13742-2.52443-1.50352-2.443-.18369-2.52443.99844-2.443.4761-2.52782 1.36548-2.28013-.16574-2.52443-.19046-2.52443 1.64744-2.443-1.25572-2.52443-4.05094-2.443 1.67375-2.52103-1.4453-2.52443.35635-2.443-1.76337-2.52443.71452-2.443 1.59485-2.52782.36479-2.36156-1.60345L6 32.08403z" fill="#5254a3"/></g></g><g><path class="background" aria-hidden="true" d="M6 5h300v200H6z"/><g aria-roledescription="area mark container"><path aria-label="date (year-month): 2000; Sum of count: 0.0590893873452; series: Education and Health" aria-roledescription="area mark" d="M6 57.02544l2.52443 1.08267 2.36156-2.28094 2.52783-5.46081 2.443-4.19224 2.52442-1.93409 2.443 1.3295 2.52443 2.1591 2.52104.24624 2.443.2345 2.52442 6.08413 2.443 5.52344 2.52443 1.32229 2.52443.1865 2.28013-4.3802 2.52782-2.19589 2.443-4.23164 2.52443-4.06536 2.443.06529 2.52443 3.18976 2.52443-.47388 2.443 2.14601 2.52103 2.817 2.443 2.2395 2.52443 7.0901 2.52443-5.68815 2.28013 1.21187 2.52782-3.73519 2.443-4.90781 2.52443-1.04387 2.443.67336 2.52442-.24483 2.52443 2.21862 2.443.39315 2.52104 3.07524 2.443 3.36932 2.52442 1.75877 2.52443 1.00547 2.28013-1.31436 2.52783-4.76797 2.443-.97409 2.52442-5.81893 2.443-.47376 2.52443-1.30315 2.52443 3.02002 2.443 2.4458 2.52103-1.1085 2.443 4.92447 2.52443 1.3183 2.52443.28147 2.36156-.57004 2.52783-5.14789 2.443-2.4567 2.52442-3.19407 2.443-.56992 2.52443 1.20368 2.52443.46437 2.443 1.69837 2.52103 4.18252 2.443 5.72472 2.52443 1.24528 2.52443-.58287 2.28013-3.05365 2.52782-6.97032 2.443-3.39287 2.52443-1.56113 2.443-.13138 2.52443 2.05723 2.52443 4.93554 2.443-4.28688 2.52103-.49046 2.443 11.56982 2.52443-1.69144 2.52443-.69026 2.28013 1.37115 2.52443-7.97869 2.44639 1.7835 2.52443-3.8566 2.443-.08257 2.52443.70633 2.52443 3.33496 2.443-1.01712 2.52103 1.09651 2.443 8.48347 2.52443-.56684 2.52443 4.62227 2.28013-1.96737 2.52782-3.35738 2.443-3.91478 2.52443-6.36931 2.443-1.79754 2.52442-1.4184 2.52443 1.18535 2.443 3.22512 2.52104-.00855 2.443 10.17603 2.52442.32185 2.52443 2.08827 2.36157 2.64 2.52443-3.44858 2.44639-8.82158 2.52443-2.3916 2.443-2.3675 2.52442 1.22056 2.52443 3.7195 2.443 3.54004 2.52104-.90836 2.443 4.11718 2.52442 1.14573 2.52443 3.2272 2.28013-.81234 2.52443-4.10892 2.4464-1.4324 2.52442-3.30928 2.443-.05952 2.52443-.697 2.52443 1.36746 2.443.55702 2.52103 2.22991 2.443 3.2155 2.52443-1.25732L306 64.581v16.0128l-2.52443-5.49793-2.52443 2.9965-2.443-2.80696-2.52103-.94061-2.443-.78402-2.52443-1.9088-2.52443.84386-2.443.24374-2.52443.21249-2.44639 1.46451-2.52443 2.79635-2.28013-.18496-2.52443-3.55746-2.52443 1.33971-2.443-3.3867-2.52103 3.21379-2.443-2.01021-2.52443-3.90161-2.52443-2.19816-2.443.80434-2.52442 2.22964-2.4464 8.16596-2.52442 3.51195-2.36157-3.87755-2.52443-2.17842-2.52443-.11283-2.443-8.75191-2.52103.77642-2.443-.70785-2.52443-1.0642-2.52443 1.0715-2.443 2.55783-2.52442 6.72095-2.443 1.55648-2.52782.33535-2.28013.62835-2.52443-2.95575-2.52443 1.41164-2.443-7.37181-2.52104-.35558-2.443 1.58454-2.52442-3.28833-2.52443-.22609-2.443-.23692-2.52443 2.25017-2.4464-1.72004-2.52442 7.00523-2.28013-3.29012-2.52443 2.58892-2.52443 1.3086-2.443-7.56718-2.52103-.18373-2.443 4.27035-2.52443-5.25599-2.52443-3.17649-2.443 1.17058-2.52443 1.96-2.443 1.46356-2.52782 5.88003-2.28013 2.00164-2.52443.47452-2.52443-.81738-2.443-5.40092-2.52103-5.10757-2.443.17023-2.52443.3571-2.52443.02281-2.443 1.39718-2.52443-.80598-2.443 2.6237-2.52782 3.01047-2.36156 1.25553-2.52443.39808-2.52443-.05778-2.443-4.49508-2.52103.76732-2.443-2.62951-2.52443-.94858-2.52443-.76071-2.443 1.56236-2.52443 3.76089-2.443.71429-2.52782 1.59813-2.28013 2.18492-2.52443-1.52767-2.52443-.04376-2.443-4.7498-2.52103-1.91684-2.443.92805-2.52443-.294-2.52443-.14522-2.443-1.54953-2.52442-.77544-2.443 3.32972-2.52782 4.07837-2.28013-.1876-2.52443 5.22293-2.52443-7.57805-2.443-.91351-2.52104-2.81105-2.443-2.1914-2.52442 4.4056-2.52443-4.99963-2.443-.98975-2.52443 2.8197-2.443 2.09993-2.52782 4.78588-2.28013 3.26363-2.52443-.18835-2.52443-3.00377-2.443-3.33916-2.52443-6.0882-2.443 1.5992-2.52103.62033-2.52443-1.34816-2.443-2.00174-2.52443 1.8218-2.443.88027-2.52782 5.29057-2.36156.6607L6 68.84333z" fill="#9c9ede"/></g></g><g><path class="background" aria-hidden="true" d="M6 5h300v200H6z"/><g aria-roledescription="area mark container"><path aria-label="date (year-month): 2000; Sum of count: 0.130900569133; series: Leisure and hospitality" aria-roledescription="area mark" d="M6 95.05691l2.52443.5512 2.36156-2.54053 2.52783-5.96232 2.443 3.75736 2.52442 5.03279 2.443-.14097 2.52443 4.03566 2.52104-6.6695 2.443-1.03326 2.52442 4.03095 2.443 4.97498 2.52443 1.04867 2.52443-6.4003 2.28013-.85837 2.52782-1.14936 2.443-2.58402 2.52443 1.5321 2.443 3.87614 2.52443 2.4111 2.52443-6.13353 2.443.94768 2.52103 2.23492 2.443-.6931 2.52443 5.31891 2.52443-2.4631 2.28013-1.2813 2.52782-3.3022 2.443.0507 2.52443 1.741 2.443 3.2708 2.52442.23202 2.52443-2.3945 2.443-2.1422 2.52104.95032 2.443 4.10174 2.52442-.482 2.52443 1.18795 2.28013-.36405 2.52783-2.77554 2.443-.1189 2.52442-.36696 2.443-1.54522 2.52443 3.01473 2.52443-2.89457 2.443.12809 2.52103 2.08086 2.443 3.32757 2.52443-.673 2.52443-1.80234 2.36156-.42222 2.52783-4.13785 2.443-.72534 2.52442 2.10656 2.443 2.67104 2.52443.3753 2.52443-.7106 2.443-.4757 2.52103 1.18952 2.443 4.4099 2.52443-1.79536 2.52443-.49254 2.28013-2.05494 2.52782-3.10085 2.443-1.9196 2.52443 4.322 2.443-1.7783 2.52443 4.27057 2.52443 1.37307 2.443-5.23683 2.52103-.53716 2.443 1.8959 2.52443-1.2847 2.52443-.87864 2.28013 5.19141 2.52443-6.39074 2.44639 3.56545 2.52443.20434 2.443 1.719 2.52443-1.24362 2.52443-1.17275 2.443-1.93472 2.52103-.42924 2.443 6.20132 2.52443-1.70396 2.52443 3.30084 2.28013-.50115 2.52782-.86525 2.443 2.04205 2.52443-3.12227 2.443-.26573 2.52442 2.98245 2.52443-5.74753 2.443.15962 2.52104-3.05841 2.443 7.09644 2.52442-1.81688 2.52443 1.93137 2.36157 4.23645 2.52443-2.92373 2.44639-5.83917 2.52443-.02394 2.443.1743 2.52442 1.51086 2.52443.80908 2.443 1.93873 2.52104-4.17153 2.443 2.36323 2.52442-2.35884 2.52443 2.11223 2.28013.70237 2.52443-2.07383 2.4464-1.15851 2.52442 3.1938 2.443 2.64108 2.52443-.80474 2.52443.94169 2.443-3.17248 2.52103.2364 2.443 3.51909 2.52443-3.17356L306 105.7873v21.31038l-2.52443-3.23487-2.52443 3.0357-2.443-4.1606-2.52103.46547-2.443 1.30445-2.52443 1.18867-2.52443-.09487-2.443-1.08444-2.52443-3.32423-2.44639-2.18927-2.52443 3.42597-2.28013-.3201-2.52443-.97217-2.52443 1.69762-2.443 1.7316-2.52103 2.57501-2.443-3.36558-2.52443.87849-2.52443.5771-2.443 1.14839-2.52442-.08385-2.4464 2.269-2.52442 2.4316-2.36157-1.16546-2.52443.35194-2.52443-.7701-2.443-3.96835-2.52103 1.55193-2.443-1.66662-2.52443 4.66213-2.52443-2.85756-2.443 1.74521-2.52442 2.19028-2.443-2.50542-2.52782-.10719-2.28013-.50318-2.52443-3.14558-2.52443-.62594-2.443-1.74467-2.52104.42643-2.443 1.04803-2.52442 1.10615-2.52443.273-2.443 1.93564-2.52443-2.62503-2.4464-2.54321-2.52442 5.65994-2.28013-3.2485-2.52443-2.67675-2.52443 4.35817-2.443-1.60975-2.52103-3.56616-2.443 5.45456-2.52443-1.18402-2.52443-2.95475-2.443 2.55186-2.52443-3.11382-2.443-.25868-2.52782 2.84981-2.28013 1.2341-2.52443.18375-2.52443.77572-2.443-2.38214-2.52103-2.4513-2.443.38202-2.52443 4.0737-2.52443-2.88995-2.443 2.75064-2.52443-5.59133-2.443-1.32162-2.52782 3.72584-2.36156-.66316-2.52443 3.42779-2.52443-1.08273-2.443-1.54638-2.52103-3.18635-2.443.38326-2.52443 3.67013-2.52443-4.5035-2.443 1.3536-2.52443.42409-2.443.77288-2.52782 2.36878-2.28013 1.96936-2.52443-3.62815-2.52443.49038-2.443-2.0957-2.52103-.54982-2.443.35569-2.52443 1.34475-2.52443 1.7782-2.443-2.45582-2.52442-.45977-2.443-2.8787-2.52782 2.32975-2.28013.91028-2.52443 1.24633-2.52443-1.84047-2.443 1.394-2.52104-1.56062-2.443.69308-2.52442 1.29751-2.52443.13458-2.443-3.16103-2.52443-1.53764-2.443 2.3382-2.52782 1.0315-2.28013.89774-2.52443 5.60783-2.52443-.64682-2.443-3.09754-2.52443-3.17282-2.443-2.27479-2.52103 6.40152-2.52443-.26747-2.443 2.41227-2.52443-9.41527-2.443-3.5522-2.52782 6.5722-2.36156 1.08619L6 121.23703z" fill="#cedb9c"/></g></g><g><path class="background" aria-hidden="true" d="M6 5h300v200H6z"/><g aria-roledescription="area mark container"><path aria-label="date (year-month): 2000; Sum of count: 0.0458654168062; series: Other" aria-roledescription="area mark" d="M6 146.44627l2.52443-.23005 2.36156 1.23362 2.52783-1.97512 2.443.77927 2.52442 4.8333 2.443.51034 2.52443.02906 2.52104-5.11915 2.443 5.0449 2.52442.15729 2.443 3.05505 2.52443 2.55839 2.52443-5.02958 2.28013.46906 2.52782-.98153 2.443.64724 2.52443-.75733 2.443 5.47562L53.0718 154.6l2.52443-1.13239 2.443-.33705 2.52103.52149 2.443-.41357 2.52443 2.01639 2.52443-2.2363 2.28013 1.04122 2.52782-1.12304 2.443.63926 2.52443-1.35344 2.443 2.08281 2.52442-2.24115 2.52443-.62978 2.443-1.52509 2.52104 1.14862 2.443 3.63417 2.52442-1.55736 2.52443 1.9962 2.28013-.9115 2.52783-1.062 2.443-1.87482 2.52442-1.36918 2.443-1.0769 2.52443 4.67363 2.52443-2.59408 2.443-2.92733 2.52103 2.65434 2.443 2.386 2.52443-.7764 2.52443-2.8935 2.36156.155 2.52783-1.79112 2.443.5613 2.52442 3.41184 2.443-.6405 2.52443-1.23203 2.52443-2.804 2.443.87906 2.52103 2.62838 2.443 1.17542 2.52443-2.73196 2.52443-.34919 2.28013.4383 2.52782-3.18208 2.443-1.08129 2.52443 2.2632 2.443 1.24932 2.52443.37341 2.52443 1.30422 2.443-3.83775 2.52103 3.71722 2.443.44214 2.52443-5.78312 2.52443 3.76655 2.28013.7454 2.52443-2.7257 2.44639 1.1036 2.52443.64785 2.443-.112 2.52443-.62616 2.52443-1.99637 2.443-.37704 2.52103 1.51226 2.443.47315 2.52443.00074 2.52443 4.39145 2.28013 1.1188 2.52782 1.68463 2.443-.46674 2.52443-3.21661 2.443-3.87012 2.52442 2.94163 2.52443-2.03502 2.443 3.66853 2.52104-.99102 2.443 2.60712 2.52442.05728 2.52443-.43182 2.36157 1.74252 2.52443-1.1326 2.44639-1.80184 2.52443-1.99418 2.443-1.75546 2.52442.00647 2.52443.3424 2.443 2.87373 2.52104-.8792 2.443-.6067 2.52442.62474 2.52443 1.5872 2.28013 1.70397 2.52443-.50996 2.4464.9824 2.52442 1.80881 2.443.33902 2.52443-1.2447 2.52443-.8616 2.443-1.2442 2.52103.31095 2.443 1.02403 2.52443-3.58724L306 152.35789v8.04643l-2.52443-2.22746-2.52443 3.02613-2.443-1.08148-2.52103.27428-2.443.11502-2.52443 1.72966-2.52443.57282-2.443.72365-2.52443-2.6451-2.44639-1.82716-2.52443-.22438-2.28013-.39819-2.52443-1.64367-2.52443-.501-2.443 2.81112-2.52103-.74068-2.443-1.65934-2.52443.36896-2.52443-1.13046-2.443 1.52186-2.52442 1.28642-2.4464 1.69478-2.52442 1.31175-2.36157-.9184-2.52443-1.10523-2.52443-.07273-2.443-1.401-2.52103-1.1532-2.443-1.46853-2.52443 1.29763-2.52443-3.13706-2.443 4.69455-2.52442 3.29245-2.443-.18152-2.52782-2.20856-2.28013-.62762-2.52443-4.10301-2.52443 2.43136-2.443-.48326-2.52104-2.31556-2.443 1.30285-2.52442 2.4025-2.52443-.97535-2.443-.67912-2.52443-.30204-2.4464-1.27379-2.52442 2.96578-2.28013-1.53927-2.52443-2.97075-2.52443 5.40593-2.443.26053-2.52103-2.7381-2.443 3.01407-2.52443-1.28731-2.52443-1.70223-2.443-.70857-2.52443-1.13828-2.443.73613-2.52782 2.34849-2.28013-.60029-2.52443-.51371-2.52443 3.22164-2.443-.61488-2.52103-2.26868-2.443-.89321-2.52443 3.57182-2.52443.91936-2.443-.03544-2.52443-3.17864-2.443.26527-2.52782 1.06224-2.36156-.0915-2.52443 1.51378-2.52443.75317-2.443-.6331-2.52103-1.95873-2.443 1.6412-2.52443 3.11122-2.52443-4.18344-2.443-.31678-2.52443 1.68962-2.443 1.62731-2.52782 1.45881-2.28013-.29895-2.52443-2.68468-2.52443.88777-2.443-2.3657-2.52103-1.18527-2.443 1.81768-2.52443 2.19632-2.52443 1.95971-2.443-2.63563-2.52442-.02614-2.443-.80868-2.52782 1.8026-2.28013-.54259-2.52443 1.21131-2.52443-1.55316-2.443.05862-2.52104-.58133-2.443.35407-2.52442 1.43876-2.52443 2.46364-2.443-4.75957-2.52443-.9722-2.443.90225-2.52782-.40177-2.28013.8985-2.52443 3.46785-2.52443-2.01764-2.443-1.12611-2.52443-2.18993-2.443-2.92864-2.52103 3.28392-2.52443.43237-2.443.48424-2.52443-3.15453-2.443-1.01592-2.52782.76212-2.36156-2.0899L6 155.61935z" fill="#e7ba52"/></g></g><g><path class="background" aria-hidden="true" d="M6 5h300v200H6z"/><g aria-roledescription="area mark container"><path aria-label="date (year-month): 2000; Sum of count: 0.0257783729494; series: Agriculture" aria-roledescription="area mark" d="M6 5h300v3.80304l-2.52443.40192-2.52443.05937-2.443-1.53892-2.52103-.2647-2.443-.22357-2.52443.62819-2.52443-.2621-2.443.05954-2.52443-.57336-2.44639.7354-2.52443.84059-2.28013.23514-2.52443.069-2.52443.465-2.443-1.88144-2.52103-.31936-2.443-.2335-2.52443.5908-2.52443.425-2.443-.81006-2.52442.37537-2.4464.62197-2.52442 1.51112-2.36157-1.07072-2.52443-.6856-2.52443-.14122-2.443-.2752-2.52103-1.00324-2.443.14381-2.52443-.00577-2.52443-.48726-2.443.66581-2.52442.29368-2.443.08759-2.52782 1.61586-2.28013-.17369-2.52443-.07945-2.52443 1.01813-2.443-.46917-2.52104-1.46133-2.443-.1009-2.52442-.20482-2.52443-.74331-2.443-.5427-2.52443 1.4796-2.4464.00344-2.52442.9104-2.28013.42546-2.52443.04432-2.52443-.02505-2.443-.37996-2.52103-.88523-2.443 1.13334-2.52443-.79284-2.52443-1.0248-2.443.21482-2.52443-.19267-2.443.51903-2.52782 1.24981-2.28013-1.0743-2.52443 1.17164-2.52443.80824-2.443-.94214-2.52103-.76342-2.443-.42094-2.52443.31659-2.52443.84818-2.443-.95011-2.52443.0251-2.443.15868-2.52782.7453-2.36156.39165-2.52443.213-2.52443-.60338-2.443.13947-2.52103-.25687-2.443-1.06816-2.52443 1.7469-2.52443-1.56057-2.443-.53107-2.52443 1.20638-2.443.51215-2.52782-.07898-2.28013.1105-2.52443-.33454-2.52443-.5054-2.443.51588-2.52103-.95026-2.443-.12082-2.52443.76055-2.52443-.40434-2.443-.63742-2.52442.1379-2.443 1.50225-2.52782 2.6028-2.28013-2.03426-2.52443.06728-2.52443.68518-2.443-1.1524-2.52104-.54937-2.443-.31033-2.52442 1.14731-2.52443-.70444-2.443.61921-2.52443-.24882-2.443 1.00274-2.52782 3.65044-2.28013-2.42072-2.52443-.23336-2.52443 2.01449-2.443-.26669-2.52443-3.0292-2.443.26281-2.52103-.86198-2.52443-1.2753-2.443 1.25319-2.52443-1.1855-2.443 2.65743-2.52782-.22253-2.36156.49436L6 10.15567z" fill="#393b79"/></g></g><g><path class="background" aria-hidden="true" d="M6 5h300v200H6z"/><g aria-roledescription="area mark container"><path aria-label="date (year-month): 2000; Sum of count: 0.0400066956813; series: Self-employed" aria-roledescription="area mark" d="M6 155.61935l2.52443-1.5653 2.36156 2.08991 2.52783-.76212 2.443 1.01592 2.52442 3.15453 2.443-.48424 2.52443-.43237 2.52104-3.28392 2.443 2.92864 2.52442 2.18993 2.443 1.12611 2.52443 2.01764 2.52443-3.46785 2.28013-.8985 2.52782.40177 2.443-.90226 2.52443.97221 2.443 4.75957 2.52443-2.46364 2.52443-1.43876 2.443-.35407 2.52103.58133 2.443-.05862 2.52443 1.55316 2.52443-1.2113 2.28013.54258 2.52782-1.8026 2.443.80868 2.52443.02614 2.443 2.63563 2.52442-1.9597 2.52443-2.19633 2.443-1.81768 2.52104 1.18528 2.443 2.36569 2.52442-.88777 2.52443 2.68468 2.28013.29895 2.52783-1.4588 2.443-1.62732 2.52442-1.68962 2.443.31678 2.52443 4.18344 2.52443-3.11123 2.443-1.6412 2.52103 1.95873 2.443.6331 2.52443-.75316 2.52443-1.51377 2.36156.0915 2.52783-1.06225 2.443-.26527 2.52442 3.17864 2.443.03544 2.52443-.91936 2.52443-3.57182 2.443.89321 2.52103 2.26868 2.443.61488 2.52443-3.22164 2.52443.51371 2.28013.60029 2.52782-2.34849 2.443-.73613 2.52443 1.13828 2.443.70857 2.52443 1.70223 2.52443 1.2873 2.443-3.01406 2.52103 2.7381 2.443-.26053 2.52443-5.40593 2.52443 2.97075 2.28013 1.53927 2.52443-2.96578 2.44639 1.2738 2.52443.30203 2.443.67912 2.52443.97536 2.52443-2.40251 2.443-1.30285 2.52103 2.31556 2.443.48326 2.52443-2.43136 2.52443 4.103 2.28013.62763 2.52782 2.20856 2.443.18152 2.52443-3.29245 2.443-4.69455 2.52442 3.13706 2.52443-1.29763 2.443 1.46853 2.52104 1.1532 2.443 1.401 2.52442.07273 2.52443 1.10523 2.36157.9184 2.52443-1.31175 2.44639-1.69478 2.52443-1.28642 2.443-1.52186 2.52442 1.13046 2.52443-.36896 2.443 1.65934 2.52104.74068 2.443-2.81112 2.52442.501 2.52443 1.64367 2.28013.3982 2.52443.22437 2.4464 1.82716 2.52442 2.6451 2.443-.72365 2.52443-.57282 2.52443-1.72966 2.443-.11502 2.52103-.27428 2.443 1.08148 2.52443-3.02613L306 160.40432v9.07393l-2.52443-1.6485-2.52443 2.267-2.443-1.01166-2.52103.3531-2.443.55808-2.52443.60508-2.52443.19516-2.443-.35394-2.52443-1.40816-2.44639-2.1373-2.52443 1.4489-2.28013-.79745-2.52443-.07286-2.52443-.35331-2.443.80402-2.52103-.43936-2.443-.9202-2.52443-.66582-2.52443-1.6297-2.443 2.5345-2.52442 2.0003-2.4464 1.66918-2.52442.60766-2.36157-1.06273-2.52443-1.43385-2.52443.64483-2.443-.29159-2.52103-.7645-2.443-2.88311-2.52443 1.42794-2.52443-3.2838-2.443 3.17365-2.52442 4.44693-2.443-1.43725-2.52782-.47918-2.28013-1.67833-2.52443-2.22017-2.52443 1.39247-2.443-1.48827-2.52104-1.2486-2.443 1.61975-2.52442 2.07682-2.52443-1.89724-2.443-1.67906-2.52443.21321-2.4464 1.1765-2.52442 1.28015-2.28013-1.13566-2.52443-2.67798-2.52443 5.89197-2.443-.2609-2.52103-4.33987-2.443 3.45088-2.52443-2.23692-2.52443-1.08626-2.443-1.06312-2.52443.1961-2.443-.14505-2.52782 2.6154-2.28013.0881-2.52443-.91843-2.52443 4.13786-2.443-.2145-2.52103-3.56338-2.443.83365-2.52443 2.09573-2.52443-.3804-2.443.22712-2.52443-3.07208-2.443-1.15615-2.52782.66869-2.36156-.04638-2.52443 2.24645-2.52443 1.7645-2.443-.7179-2.52103-1.0457-2.443.10053-2.52443 3.1879-2.52443-5.16996-2.443.03822-2.52443 1.76097-2.443 1.01036-2.52782 1.7982-2.28013.0278-2.52443-2.30724-2.52443 1.97363-2.443-2.9624-2.52103-1.48123-2.443 1.6171-2.52443 2.02005-2.52443 1.12978-2.443-2.72784-2.52442.83637-2.443-1.31234-2.52782.47793-2.28013.17623-2.52443 1.35466-2.52443-.8988-2.443-.15212-2.52104.21082-2.443 1.11316-2.52442.82722-2.52443 1.12917-2.443-4.78392-2.52443.47765-2.443 1.05961-2.52782-2.25809-2.28013 1.78342-2.52443 2.90905-2.52443-.9311-2.443 2.61362-2.52443-3.7671-2.443-3.81005-2.52103 1.69263-2.52443 1.6709-2.443-.65282-2.52443-2.00068-2.443-.2438-2.52782-.73948-2.36156-.73591L6 163.62069z" fill="#e7cb94"/></g></g></g><g class="mark-group role-legend" aria-roledescription="legend" aria-label="Symbol legend titled 'series' for fill color with 14 values: Agriculture, Business services, Construction, Education and Health, Finance, ending with Wholesale and Retail Trade"><path class="background" aria-hidden="true" d="M324 5h140v196H324z" pointer-events="none"/><g class="mark-group role-legend-entry"><path class="background" aria-hidden="true" d="M324 21z" pointer-events="none"/><g class="mark-group role-scope" aria-roledescription="group mark container"><path class="background" aria-hidden="true" d="M324 21h139.02734v11H324z" pointer-events="none"/><path d="M335 27a5 5 0 11-10 0 5 5 0 1110 0" fill="#393b79" pointer-events="none"/><text transform="translate(340 30)" font-family="sans-serif" font-size="10" fill="#000" pointer-events="none">Agriculture</text><path class="background" aria-hidden="true" d="M324 34h139.02734v11H324z" pointer-events="none"/><path d="M335 40a5 5 0 11-10 0 5 5 0 1110 0" fill="#5254a3" pointer-events="none"/><text transform="translate(340 43)" font-family="sans-serif" font-size="10" fill="#000" pointer-events="none">Business services</text><path class="background" aria-hidden="true" d="M324 47h139.02734v11H324z" pointer-events="none"/><path d="M335 53a5 5 0 11-10 0 5 5 0 1110 0" fill="#6b6ecf" pointer-events="none"/><text transform="translate(340 56)" font-family="sans-serif" font-size="10" fill="#000" pointer-events="none">Construction</text><path class="background" aria-hidden="true" d="M324 60h139.02734v11H324z" pointer-events="none"/><path d="M335 66a5 5 0 11-10 0 5 5 0 1110 0" fill="#9c9ede" pointer-events="none"/><text transform="translate(340 69)" font-family="sans-serif" font-size="10" fill="#000" pointer-events="none">Education and Health</text><path class="background" aria-hidden="true" d="M324 73h139.02734v11H324z" pointer-events="none"/><path d="M335 79a5 5 0 11-10 0 5 5 0 1110 0" fill="#637939" pointer-events="none"/><text transform="translate(340 82)" font-family="sans-serif" font-size="10" fill="#000" pointer-events="none">Finance</text><g><path class="background" aria-hidden="true" d="M324 86h139.02734v11H324z" pointer-events="none"/><path d="M335 92a5 5 0 11-10 0 5 5 0 1110 0" fill="#8ca252" pointer-events="none"/><text transform="translate(340 95)" font-family="sans-serif" font-size="10" fill="#000" pointer-events="none">Government</text></g><g><path class="background" aria-hidden="true" d="M324 99h139.02734v11H324z" pointer-events="none"/><path d="M335 105a5 5 0 11-10 0 5 5 0 1110 0" fill="#b5cf6b" pointer-events="none"/><text transform="translate(340 108)" font-family="sans-serif" font-size="10" fill="#000" pointer-events="none">Information</text></g><g><path class="background" aria-hidden="true" d="M324 112h139.02734v11H324z" pointer-events="none"/><path d="M335 118a5 5 0 11-10 0 5 5 0 1110 0" fill="#cedb9c" pointer-events="none"/><text transform="translate(340 121)" font-family="sans-serif" font-size="10" fill="#000" pointer-events="none">Leisure and hospitality</text></g><g><path class="background" aria-hidden="true" d="M324 125h139.02734v11H324z" pointer-events="none"/><path d="M335 131a5 5 0 11-10 0 5 5 0 1110 0" fill="#8c6d31" pointer-events="none"/><text transform="translate(340 134)" font-family="sans-serif" font-size="10" fill="#000" pointer-events="none">Manufacturing</text></g><g><path class="background" aria-hidden="true" d="M324 138h139.02734v11H324z" pointer-events="none"/><path d="M335 144a5 5 0 11-10 0 5 5 0 1110 0" fill="#bd9e39" pointer-events="none"/><text transform="translate(340 147)" font-family="sans-serif" font-size="10" fill="#000" pointer-events="none">Mining and Extraction</text></g><g><path class="background" aria-hidden="true" d="M324 151h139.02734v11H324z" pointer-events="none"/><path d="M335 157a5 5 0 11-10 0 5 5 0 1110 0" fill="#e7ba52" pointer-events="none"/><text transform="translate(340 160)" font-family="sans-serif" font-size="10" fill="#000" pointer-events="none">Other</text></g><g><path class="background" aria-hidden="true" d="M324 164h139.02734v11H324z" pointer-events="none"/><path d="M335 170a5 5 0 11-10 0 5 5 0 1110 0" fill="#e7cb94" pointer-events="none"/><text transform="translate(340 173)" font-family="sans-serif" font-size="10" fill="#000" pointer-events="none">Self-employed</text></g><g><path class="background" aria-hidden="true" d="M324 177h139.02734v11H324z" pointer-events="none"/><path d="M335 183a5 5 0 11-10 0 5 5 0 1110 0" fill="#843c39" pointer-events="none"/><text transform="translate(340 186)" font-family="sans-serif" font-size="10" fill="#000" pointer-events="none">Transportation and Utilities</text></g><g><path class="background" aria-hidden="true" d="M324 190h139.02734v11H324z" pointer-events="none"/><path d="M335 196a5 5 0 11-10 0 5 5 0 1110 0" fill="#ad494a" pointer-events="none"/><text transform="translate(340 199)" font-family="sans-serif" font-size="10" fill="#000" pointer-events="none">Wholesale and Retail Trade</text></g></g></g><text transform="translate(324 14)" font-family="sans-serif" font-size="11" font-weight="bold" fill="#000" pointer-events="none">series</text></g></g></svg>