<svg xmlns="http://www.w3.org/2000/svg" class="marks" width="415" height="242" style="background-color:#fff"><g class="mark-group role-frame root" aria-roledescription="group mark container" fill="none" stroke-miterlimit="10"><path class="background" aria-hidden="true" d="M105.5 5.5h200v200h-200z" fill="transparent" stroke="#ddd"/><g class="mark-group role-axis" aria-hidden="true"><path class="background" aria-hidden="true" d="M105.5 205.5z" pointer-events="none"/><g class="mark-rule role-axis-grid" pointer-events="none" stroke="#ddd"><path d="M105.5 205.5V5.5M145.5 205.5V5.5M185.5 205.5V5.5M225.5 205.5V5.5M265.5 205.5V5.5M305.5 205.5V5.5"/></g></g><g class="mark-group role-axis" aria-roledescription="axis" aria-label="X-axis titled 'Sum of yield' for a linear scale with values from 0 to 500"><path class="background" aria-hidden="true" d="M105.5 205.5z" pointer-events="none"/><g class="mark-rule role-axis-tick" pointer-events="none" stroke="#888"><path d="M105.5 205.5v5M145.5 205.5v5M185.5 205.5v5M225.5 205.5v5M265.5 205.5v5M305.5 205.5v5"/></g><g class="mark-text role-axis-label" pointer-events="none" font-family="sans-serif" font-size="10" fill="#000"><text transform="translate(105.5 220.5)">0</text><text text-anchor="middle" transform="translate(145.5 220.5)">100</text><text text-anchor="middle" transform="translate(185.5 220.5)">200</text><text text-anchor="middle" transform="translate(225.5 220.5)">300</text><text text-anchor="middle" transform="translate(265.5 220.5)">400</text><text text-anchor="end" transform="translate(305.5 220.5)">500</text></g><path stroke="#888" d="M105.5 205.5h200" pointer-events="none"/><text text-anchor="middle" transform="translate(205.5 235.5)" font-family="sans-serif" font-size="11" font-weight="bold" fill="#000" pointer-events="none">Sum of yield</text></g><g class="mark-group role-axis" aria-roledescription="axis" aria-label="Y-axis titled 'variety' for a discrete scale with 10 values: Glabron, Manchuria, No. 457, No. 462, No. 475, ending with Wisconsin No. 38"><path class="background" aria-hidden="true" d="M105.5 5.5z" pointer-events="none"/><g class="mark-rule role-axis-tick" pointer-events="none" stroke="#888"><path d="M105.5 15.5h-5M105.5 35.5h-5M105.5 55.5h-5M105.5 75.5h-5M105.5 95.5h-5M105.5 115.5h-5M105.5 135.5h-5M105.5 155.5h-5M105.5 175.5h-5M105.5 195.5h-5"/></g><g class="mark-text role-axis-label" pointer-events="none" text-anchor="end" font-family="sans-serif" font-size="10" fill="#000"><text transform="translate(98.5 18)">Glabron</text><text transform="translate(98.5 38)">Manchuria</text><text transform="translate(98.5 58)">No. 457</text><text transform="translate(98.5 78)">No. 462</text><text transform="translate(98.5 98)">No. 475</text><text transform="translate(98.5 118)">Peatland</text><text transform="translate(98.5 138)">Svansota</text><text transform="translate(98.5 158)">Trebi</text><text transform="translate(98.5 178)">Velvet</text><text transform="translate(98.5 198)">Wisconsin No. 38</text></g><path stroke="#888" d="M105.5 5.5v200" pointer-events="none"/><text text-anchor="middle" transform="rotate(-90 60.0962 45.4038)" font-family="sans-serif" font-size="11" font-weight="bold" fill="#000" pointer-events="none">variety</text></g><g class="mark-rect role-mark marks" aria-roledescription="rect mark container"><path aria-label="Sum of yield: 53.9; variety: Manchuria; site: University Farm" aria-roledescription="bar" d="M201.53334 26h21.56v18h-21.56z" fill="#54a24b"/><path aria-label="Sum of yield: 82.33334; variety: Manchuria; site: Waseca" aria-roledescription="bar" d="M223.09334 26h32.93333v18h-32.93333z" fill="#eeca3b"/><path aria-label="Sum of yield: 61.8; variety: Manchuria; site: Morris" aria-roledescription="bar" d="M176.81334 26h24.72v18h-24.72z" fill="#72b7b2"/><path aria-label="Sum of yield: 72.9; variety: Manchuria; site: Crookston" aria-roledescription="bar" d="M105 26h29.16v18H105z" fill="#4c78a8"/><path aria-label="Sum of yield: 55.1; variety: Manchuria; site: Grand Rapids" aria-roledescription="bar" d="M154.77334 26h22.04v18h-22.04z" fill="#e45756"/><path aria-label="Sum of yield: 51.53334; variety: Manchuria; site: Duluth" aria-roledescription="bar" d="M134.16 26h20.61334v18H134.16z" fill="#f58518"/><path aria-label="Sum of yield: 79.86666; variety: Glabron; site: University Farm" aria-roledescription="bar" d="M195.92 6h31.94666v18H195.92z" fill="#54a24b"/><path aria-label="Sum of yield: 92.93333; variety: Glabron; site: Waseca" aria-roledescription="bar" d="M227.86666 6H265.04v18h-37.17334z" fill="#eeca3b"/><path aria-label="Sum of yield: 63.9; variety: Glabron; site: Morris" aria-roledescription="bar" d="M170.36 6h25.56v18h-25.56z" fill="#72b7b2"/><path aria-label="Sum of yield: 64.3; variety: Glabron; site: Crookston" aria-roledescription="bar" d="M105 6h25.72v18H105z" fill="#4c78a8"/><path aria-label="Sum of yield: 43.56666; variety: Glabron; site: Grand Rapids" aria-roledescription="bar" d="M152.93334 6H170.36v18h-17.42666z" fill="#e45756"/><path aria-label="Sum of yield: 55.53334; variety: Glabron; site: Duluth" aria-roledescription="bar" d="M130.72 6h22.21334v18H130.72z" fill="#f58518"/><path aria-label="Sum of yield: 62.56667; variety: Svansota; site: University Farm" aria-roledescription="bar" d="M191.45333 126H216.48v18h-25.02667z" fill="#54a24b"/><path aria-label="Sum of yield: 85.83333; variety: Svansota; site: Waseca" aria-roledescription="bar" d="M216.48 126h34.33333v18H216.48z" fill="#eeca3b"/><path aria-label="Sum of yield: 60.8; variety: Svansota; site: Morris" aria-roledescription="bar" d="M167.13333 126h24.32v18h-24.32z" fill="#72b7b2"/><path aria-label="Sum of yield: 61.1; variety: Svansota; site: Crookston" aria-roledescription="bar" d="M105 126h24.44v18H105z" fill="#4c78a8"/><path aria-label="Sum of yield: 46.3; variety: Svansota; site: Grand Rapids" aria-roledescription="bar" d="M148.61333 126h18.52v18h-18.52z" fill="#e45756"/><path aria-label="Sum of yield: 47.93333; variety: Svansota; site: Duluth" aria-roledescription="bar" d="M129.44 126h19.17333v18H129.44z" fill="#f58518"/><path aria-label="Sum of yield: 66.7; variety: Velvet; site: University Farm" aria-roledescription="bar" d="M201.96 166h26.68v18h-26.68z" fill="#54a24b"/><path aria-label="Sum of yield: 87.63333; variety: Velvet; site: Waseca" aria-roledescription="bar" d="M228.64 166h35.05332v18H228.64z" fill="#eeca3b"/><path aria-label="Sum of yield: 64.96666; variety: Velvet; site: Morris" aria-roledescription="bar" d="M175.97333 166h25.98666v18h-25.98666z" fill="#72b7b2"/><path aria-label="Sum of yield: 73.39999; variety: Velvet; site: Crookston" aria-roledescription="bar" d="M105 166h29.36v18H105z" fill="#4c78a8"/><path aria-label="Sum of yield: 55.26666; variety: Velvet; site: Grand Rapids" aria-roledescription="bar" d="M153.86666 166h22.10667v18h-22.10667z" fill="#e45756"/><path aria-label="Sum of yield: 48.76667; variety: Velvet; site: Duluth" aria-roledescription="bar" d="M134.36 166h19.50666v18H134.36z" fill="#f58518"/><path aria-label="Sum of yield: 65.63333; variety: Trebi; site: University Farm" aria-roledescription="bar" d="M222.64 146h26.25333v18H222.64z" fill="#54a24b"/><path aria-label="Sum of yield: 113.0666; variety: Trebi; site: Waseca" aria-roledescription="bar" d="M248.89333 146h45.22664v18h-45.22664z" fill="#eeca3b"/><path aria-label="Sum of yield: 90.4; variety: Trebi; site: Morris" aria-roledescription="bar" d="M186.48 146h36.16v18h-36.16z" fill="#72b7b2"/><path aria-label="Sum of yield: 88.76666; variety: Trebi; site: Crookston" aria-roledescription="bar" d="M105 146h35.50666v18H105z" fill="#4c78a8"/><path aria-label="Sum of yield: 50.4; variety: Trebi; site: Grand Rapids" aria-roledescription="bar" d="M166.32 146h20.16v18h-20.16z" fill="#e45756"/><path aria-label="Sum of yield: 64.53333; variety: Trebi; site: Duluth" aria-roledescription="bar" d="M140.50666 146H166.32v18h-25.81334z" fill="#f58518"/><path aria-label="Sum of yield: 69.70001; variety: No. 457; site: University Farm" aria-roledescription="bar" d="M209.06667 46h27.88v18h-27.88z" fill="#54a24b"/><path aria-label="Sum of yield: 100.3; variety: No. 457; site: Waseca" aria-roledescription="bar" d="M236.94668 46h40.12v18h-40.12z" fill="#eeca3b"/><path aria-label="Sum of yield: 72.23334; variety: No. 457; site: Morris" aria-roledescription="bar" d="M180.17334 46h28.89333v18h-28.89333z" fill="#72b7b2"/><path aria-label="Sum of yield: 80; variety: No. 457; site: Crookston" aria-roledescription="bar" d="M105 46h32v18h-32z" fill="#4c78a8"/><path aria-label="Sum of yield: 51.63334; variety: No. 457; site: Grand Rapids" aria-roledescription="bar" d="M159.52 46h20.65334v18H159.52z" fill="#e45756"/><path aria-label="Sum of yield: 56.3; variety: No. 457; site: Duluth" aria-roledescription="bar" d="M137 46h22.52v18H137z" fill="#f58518"/><path aria-label="Sum of yield: 62.16667; variety: No. 462; site: University Farm" aria-roledescription="bar" d="M205.76 66h24.86667v18H205.76z" fill="#54a24b"/><path aria-label="Sum of yield: 110.4667; variety: No. 462; site: Waseca" aria-roledescription="bar" d="M230.62667 66h44.18668v18h-44.18668z" fill="#eeca3b"/><path aria-label="Sum of yield: 77.36667; variety: No. 462; site: Morris" aria-roledescription="bar" d="M174.81333 66H205.76v18h-30.94667z" fill="#72b7b2"/><path aria-label="Sum of yield: 79.09999; variety: No. 462; site: Crookston" aria-roledescription="bar" d="M105 66h31.64v18H105z" fill="#4c78a8"/><path aria-label="Sum of yield: 44.83334; variety: No. 462; site: Grand Rapids" aria-roledescription="bar" d="M156.88 66h17.93333v18H156.88z" fill="#e45756"/><path aria-label="Sum of yield: 50.6; variety: No. 462; site: Duluth" aria-roledescription="bar" d="M136.64 66h20.24v18h-20.24z" fill="#f58518"/><path aria-label="Sum of yield: 60.83334; variety: Peatland; site: University Farm" aria-roledescription="bar" d="M210.89334 106h24.33333v18h-24.33333z" fill="#54a24b"/><path aria-label="Sum of yield: 84.59999; variety: Peatland; site: Waseca" aria-roledescription="bar" d="M235.22667 106h33.84v18h-33.84z" fill="#eeca3b"/><path aria-label="Sum of yield: 73.06667; variety: Peatland; site: Morris" aria-roledescription="bar" d="M181.66667 106h29.22667v18h-29.22667z" fill="#72b7b2"/><path aria-label="Sum of yield: 66.83333; variety: Peatland; site: Crookston" aria-roledescription="bar" d="M105 106h26.73333v18H105z" fill="#4c78a8"/><path aria-label="Sum of yield: 61.46667; variety: Peatland; site: Grand Rapids" aria-roledescription="bar" d="M157.08 106h24.58667v18H157.08z" fill="#e45756"/><path aria-label="Sum of yield: 63.36667; variety: Peatland; site: Duluth" aria-roledescription="bar" d="M131.73333 106H157.08v18h-25.34667z" fill="#f58518"/><path aria-label="Sum of yield: 54.66667; variety: No. 475; site: University Farm" aria-roledescription="bar" d="M200.37333 86H222.24v18h-21.86667z" fill="#54a24b"/><path aria-label="Sum of yield: 88.03334; variety: No. 475; site: Waseca" aria-roledescription="bar" d="M222.24 86h35.21333v18H222.24z" fill="#eeca3b"/><path aria-label="Sum of yield: 66.83333; variety: No. 475; site: Morris" aria-roledescription="bar" d="M173.64 86h26.73333v18H173.64z" fill="#72b7b2"/><path aria-label="Sum of yield: 76.23333; variety: No. 475; site: Crookston" aria-roledescription="bar" d="M105 86h30.49333v18H105z" fill="#4c78a8"/><path aria-label="Sum of yield: 34.93333; variety: No. 475; site: Grand Rapids" aria-roledescription="bar" d="M159.66666 86H173.64v18h-13.97334z" fill="#e45756"/><path aria-label="Sum of yield: 60.43333; variety: No. 475; site: Duluth" aria-roledescription="bar" d="M135.49333 86h24.17333v18h-24.17333z" fill="#f58518"/><path aria-label="Sum of yield: 77.3; variety: Wisconsin No. 38; site: University Farm" aria-roledescription="bar" d="M216.38667 186h30.92v18h-30.92z" fill="#54a24b"/><path aria-label="Sum of yield: 116.96667; variety: Wisconsin No. 38; site: Waseca" aria-roledescription="bar" d="M247.30667 186h46.78667v18h-46.78667z" fill="#eeca3b"/><path aria-label="Sum of yield: 76.63334; variety: Wisconsin No. 38; site: Morris" aria-roledescription="bar" d="M185.73334 186h30.65333v18h-30.65333z" fill="#72b7b2"/><path aria-label="Sum of yield: 85.76667; variety: Wisconsin No. 38; site: Crookston" aria-roledescription="bar" d="M105 186h34.30667v18H105z" fill="#4c78a8"/><path aria-label="Sum of yield: 55.13334; variety: Wisconsin No. 38; site: Grand Rapids" aria-roledescription="bar" d="M163.68 186h22.05334v18H163.68z" fill="#e45756"/><path aria-label="Sum of yield: 60.93333; variety: Wisconsin No. 38; site: Duluth" aria-roledescription="bar" d="M139.30667 186H163.68v18h-24.37333z" fill="#f58518"/></g><g class="mark-group role-legend" aria-roledescription="legend" aria-label="Symbol legend titled 'site' for fill color with 6 values: Crookston, Duluth, Grand Rapids, Morris, University Farm, Waseca"><path class="background" aria-hidden="true" d="M323 5h87v92h-87z" pointer-events="none"/><g class="mark-group role-legend-entry"><path class="background" aria-hidden="true" d="M323 21z" pointer-events="none"/><g class="mark-group role-scope" aria-roledescription="group mark container"><path class="background" aria-hidden="true" d="M323 21h86.00488v11H323z" pointer-events="none"/><path d="M324 22h10v10h-10z" fill="#4c78a8" pointer-events="none"/><text transform="translate(339 30)" font-family="sans-serif" font-size="10" fill="#000" pointer-events="none">Crookston</text><path class="background" aria-hidden="true" d="M323 34h86.00488v11H323z" pointer-events="none"/><path d="M324 35h10v10h-10z" fill="#f58518" pointer-events="none"/><text transform="translate(339 43)" font-family="sans-serif" font-size="10" fill="#000" pointer-events="none">Duluth</text><g><path class="background" aria-hidden="true" d="M323 47h86.00488v11H323z" pointer-events="none"/><path d="M324 48h10v10h-10z" fill="#e45756" pointer-events="none"/><text transform="translate(339 56)" font-family="sans-serif" font-size="10" fill="#000" pointer-events="none">Grand Rapids</text></g><g><path class="background" aria-hidden="true" d="M323 60h86.00488v11H323z" pointer-events="none"/><path d="M324 61h10v10h-10z" fill="#72b7b2" pointer-events="none"/><text transform="translate(339 69)" font-family="sans-serif" font-size="10" fill="#000" pointer-events="none">Morris</text></g><g><path class="background" aria-hidden="true" d="M323 73h86.00488v11H323z" pointer-events="none"/><path d="M324 74h10v10h-10z" fill="#54a24b" pointer-events="none"/><text transform="translate(339 82)" font-family="sans-serif" font-size="10" fill="#000" pointer-events="none">University Farm</text></g><g><path class="background" aria-hidden="true" d="M323 86h86.00488v11H323z" pointer-events="none"/><path d="M324 87h10v10h-10z" fill="#eeca3b" pointer-events="none"/><text transform="translate(339 95)" font-family="sans-serif" font-size="10" fill="#000" pointer-events="none">Waseca</text></g></g></g><text transform="translate(323 14)" font-family="sans-serif" font-size="11" font-weight="bold" fill="#000" pointer-events="none">site</text></g></g></svg>